<?xml version="1.0" encoding="UTF-8"?>
<svg id="Layer_1" data-name="Layer 1" xmlns="http://www.w3.org/2000/svg" viewBox="0 0 120 120">
  <defs>
    <style>
      .cls-1 {
        fill: #faae31;
      }
    </style>
  </defs>
  <path class="cls-1" d="M110,60c0,13.36-5.2,25.91-14.64,35.36-9.44,9.44-22,14.64-35.36,14.64s-25.91-5.2-35.36-14.64c-9.44-9.44-14.64-22-14.64-35.36,0-11.17,3.6-21.74,10.42-30.55.54-.7,1.56-.83,2.26-.29.7.54.83,1.56.29,2.26-6.38,8.25-9.74,18.13-9.74,28.58,0,25.79,20.98,46.77,46.77,46.77s46.77-20.98,46.77-46.77S85.79,13.23,60,13.23c-8.23,0-16.32,2.17-23.4,6.27-1.66.96-3.26,2.03-4.79,3.19l4.69.17c.89.03,1.59.78,1.55,1.67-.03.87-.75,1.56-1.61,1.56-.02,0-.04,0-.06,0l-8.92-.32c-.5-.02-.96-.26-1.25-.66-.25-.34-.35-.76-.29-1.16,0,0,0-.02,0-.03,0-.03.01-.05.02-.08,0-.03.01-.06.02-.1,0,0,0-.02,0-.02l2.45-8.58c.24-.86,1.14-1.35,1.99-1.11.86.24,1.35,1.14,1.11,1.99l-1.04,3.64c1.45-1.06,2.95-2.05,4.51-2.94,7.57-4.39,16.22-6.7,25.02-6.7,13.36,0,25.91,5.2,35.36,14.64,9.44,9.44,14.64,22,14.64,35.36ZM42.56,57.93c0-1.39.54-2.69,1.52-3.68.98-.98,2.29-1.52,3.68-1.52s2.69.54,3.68,1.52l5.92,5.92,11.2-11.37c2.02-2.03,5.32-2.04,7.35-.03,2.03,2.02,2.04,5.31.02,7.34-2.95,2.98-4.8,4.87-6.59,6.71-2.34,2.4-4.37,4.47-8.29,8.39-1.01,1.01-2.35,1.52-3.68,1.52s-2.66-.51-3.68-1.52l-9.61-9.61c-.98-.98-1.52-2.29-1.52-3.68h0ZM45.79,57.93c0,.53.21,1.02.58,1.4l9.61,9.61c.77.77,2.02.77,2.79,0,3.9-3.9,5.92-5.97,8.26-8.36,1.71-1.75,3.65-3.73,6.61-6.72.77-.77.76-2.02,0-2.78-.77-.76-2.01-.76-2.78,0l-12.34,12.52c-.3.31-.71.48-1.14.48h0c-.43,0-.84-.17-1.14-.47l-7.07-7.07c-.37-.37-.87-.58-1.4-.58s-1.02.21-1.4.58c-.37.37-.58.87-.58,1.4h0ZM23.1,60c0-20.34,16.55-36.9,36.9-36.9s36.9,16.55,36.9,36.9-16.55,36.9-36.9,36.9-36.9-16.55-36.9-36.9ZM26.33,60c0,18.57,15.1,33.67,33.67,33.67s33.67-15.1,33.67-33.67-15.1-33.67-33.67-33.67-33.67,15.1-33.67,33.67ZM60,36.57c.89,0,1.61-.72,1.61-1.61v-3.05c0-.89-.72-1.61-1.61-1.61s-1.61.72-1.61,1.61v3.05c0,.89.72,1.61,1.61,1.61ZM77.71,43.9c.41,0,.83-.16,1.14-.47l2.15-2.15c.63-.63.63-1.65,0-2.28-.63-.63-1.65-.63-2.28,0l-2.15,2.15c-.63.63-.63,1.65,0,2.28.31.31.73.47,1.14.47h0ZM78.85,76.57c-.63-.63-1.65-.63-2.28,0-.63.63-.63,1.65,0,2.28l2.15,2.15c.31.31.73.47,1.14.47s.83-.16,1.14-.47c.63-.63.63-1.65,0-2.28l-2.15-2.15ZM40.14,81.48c.41,0,.83-.16,1.14-.47l2.15-2.15c.63-.63.63-1.65,0-2.28-.63-.63-1.65-.63-2.28,0l-2.15,2.15c-.63.63-.63,1.65,0,2.28.31.31.73.47,1.14.47h0ZM41.15,43.43c.31.31.73.47,1.14.47s.83-.16,1.14-.47c.63-.63.63-1.65,0-2.28l-2.15-2.15c-.63-.63-1.65-.63-2.28,0-.63.63-.63,1.65,0,2.28l2.15,2.15ZM85.05,61.61h3.05c.89,0,1.61-.72,1.61-1.61s-.72-1.61-1.61-1.61h-3.05c-.89,0-1.61.72-1.61,1.61s.72,1.61,1.61,1.61ZM60,83.43c-.89,0-1.61.72-1.61,1.61v3.05c0,.89.72,1.61,1.61,1.61s1.61-.72,1.61-1.61v-3.05c0-.89-.72-1.61-1.61-1.61ZM34.95,58.39h-3.05c-.89,0-1.61.72-1.61,1.61s.72,1.61,1.61,1.61h3.05c.89,0,1.61-.72,1.61-1.61s-.72-1.61-1.61-1.61Z"/>
</svg>