<?xml version="1.0" encoding="UTF-8"?>
<svg id="Layer_1" data-name="Layer 1" xmlns="http://www.w3.org/2000/svg" viewBox="0 0 120 120">
  <defs>
    <style>
      .cls-1 {
        fill: #faae31;
      }
    </style>
  </defs>
  <g id="Arrow-52">
    <path class="cls-1" d="M85.53,103.24l3.09-6.94h-7.23c-6.66,0-13.05-2.66-17.75-7.37-.56-.56-.67-1.42-.27-2.1,2.09-3.53,2.9-6.25,4.74-14.14.4-1.73,2.85-1.78,3.34-.08.31,1.08.56,1.92.8,2.62,1.18,3.45,4.94,5.86,9.14,5.86h7.29l-3.15-7.07c-2.41-4.79,2.85-8.59,6.6-5.68,3.95,3.07,13.53,11.88,18.88,16.86,1.9,1.76,2,4.73.24,6.63-.08.08-.16.16-.24.24-5.35,4.98-14.93,13.79-18.88,16.86-3.63,2.82-9.08-.75-6.6-5.68h0ZM67.02,87.38c3.96,3.53,9.07,5.47,14.37,5.48h9.88c.96,0,1.73.78,1.73,1.73,0,.24-.05.48-.15.7-4.45,10-4.18,9.39-4.22,9.48-.84,1.63.64,2.01,1.4,1.43,3.99-3.1,14.37-12.69,18.65-16.66.5-.46.53-1.25.07-1.75-.02-.02-.04-.05-.07-.07-4.28-3.98-14.66-13.56-18.65-16.66-.84-.65-2.19-.12-1.4,1.43.04.08-.21-.48,4.22,9.47.48,1.08-.16,2.58-1.58,2.58h-9.88c-4.74,0-8.95-2.24-11.23-5.77-.95,3.58-1.66,5.88-3.14,8.61Z"/>
    <path class="cls-1" d="M27.87,51.66c-3.95-3.07-13.53-11.88-18.88-16.86-1.9-1.76-2-4.73-.24-6.63.08-.08.16-.16.24-.24,5.35-4.98,14.93-13.79,18.88-16.86,3.69-2.86,9.05.81,6.6,5.68l-3.09,6.94h9.32c5.29,0,10.79,2.34,15.5,6.58.65.59.76,1.57.25,2.28-1.71,2.36-3.07,4.97-4.02,7.72-.34.99-.69,2.14-1.07,3.5-.26.92-1.21,1.45-2.13,1.2-.4-.11-.75-.36-.97-.71-2.15-3.26-5.11-5.36-7.55-5.36h-9.37l3.15,7.06c2.43,4.85-2.91,8.55-6.6,5.68h0ZM29.99,13.8c-3.99,3.1-14.37,12.69-18.65,16.66-.5.46-.53,1.25-.07,1.75.02.02.04.04.07.07,4.28,3.98,14.66,13.56,18.65,16.66.8.63,2.2.15,1.4-1.43-.04-.08.21.48-4.22-9.47-.48-1.08.16-2.57,1.58-2.57h11.97c3.15,0,6.08,1.89,8.28,4.21.9-2.76,2.17-5.39,3.76-7.81-3.79-3.05-8.02-4.72-12.04-4.72h-11.97c-.96,0-1.73-.78-1.73-1.74,0-.24.05-.48.15-.7,4.45-10,4.18-9.39,4.22-9.48.85-1.66-.66-2-1.4-1.43Z"/>
    <path class="cls-1" d="M27.87,108.99c-3.96-3.07-13.53-11.88-18.88-16.86-1.9-1.76-2-4.73-.24-6.63.08-.08.16-.16.24-.24,5.35-4.98,14.93-13.79,18.88-16.86,3.69-2.86,9.05.81,6.6,5.68l-3.12,7h7.26c4.2,0,7.96-2.41,9.14-5.86,2.75-8.04,5.53-25.39,8.37-33.68,3.42-10.01,13.6-17.86,23.18-17.86h9.35l-3.12-7.01c-2.43-4.85,2.91-8.55,6.6-5.68,3.95,3.07,13.53,11.88,18.88,16.86,1.9,1.76,2,4.73.24,6.63-.08.08-.16.16-.24.24-5.35,4.98-14.93,13.79-18.88,16.86-3.7,2.88-9.04-.83-6.6-5.68l3.12-7h-9.34c-3.67,0-7.77,4.48-9.14,8.5-2.76,8.06-5.52,25.37-8.37,33.68-3.27,9.57-13.17,15.21-23.18,15.21h-7.26l3.12,7c2.44,4.85-2.89,8.56-6.6,5.68ZM29.99,71.13c-4,3.1-14.37,12.69-18.65,16.66-.5.46-.53,1.25-.07,1.75.02.02.04.04.07.07,4.28,3.98,14.66,13.56,18.65,16.66.83.64,2.2.15,1.4-1.43-.04-.08.21.48-4.22-9.47-.48-1.09.22-2.51,1.58-2.51h9.88c9.13,0,17.32-5.29,19.91-12.87,2.76-8.06,5.52-25.37,8.37-33.68,1.78-5.21,7.03-10.84,12.4-10.84h11.97c1.35,0,2.06,1.41,1.58,2.5-4.45,10-4.18,9.39-4.22,9.48-.84,1.63.64,2.02,1.4,1.43,3.99-3.1,14.37-12.68,18.65-16.66.5-.46.53-1.25.07-1.75-.02-.02-.04-.04-.07-.07-4.28-3.98-14.66-13.56-18.65-16.66-.8-.62-2.21-.16-1.4,1.43.04.08-.21-.48,4.22,9.47.48,1.09-.21,2.52-1.58,2.52h-11.97c-8.05,0-16.99,6.96-19.91,15.52-2.75,8.04-5.53,25.39-8.37,33.68-1.67,4.9-6.66,8.19-12.4,8.19h-9.88c-1.35,0-2.06-1.42-1.58-2.5,4.45-10,4.18-9.39,4.22-9.48.85-1.66-.66-2-1.4-1.43h0Z"/>
  </g>
</svg>