<?xml version="1.0" encoding="UTF-8"?>
<svg id="Layer_1" data-name="Layer 1" xmlns="http://www.w3.org/2000/svg" viewBox="0 0 120 120">
  <defs>
    <style>
      .cls-1 {
        fill: #faae31;
      }
    </style>
  </defs>
  <g id="YoxEuB.tif">
    <g>
      <path class="cls-1" d="M87.61,33.83c-1.19-.06-2.01-.7-2.68-1.55-1.03-1.31-2.34-2.71-2.34-4.23-.03-1.43,1.28-2.83,2.22-4.08.73-.91,1.55-1.64,2.86-1.67.94-.03,1.52-.85,1.46-1.8-.09-.85-.73-1.43-1.67-1.43-2.07-.03-3.62,1-4.9,2.5-.79.88-1.37,1.92-2.1,3.07-2.04-3.23-4.5-5.6-8.49-5.57-3.96,0-6.39,2.4-8.37,5.48-.7-.97-1.31-1.95-2.04-2.83-1.25-1.58-2.8-2.65-4.93-2.65-1,0-1.7.58-1.77,1.49-.03.91.55,1.7,1.52,1.73,1.37.03,2.19.85,2.89,1.8.85,1.1,1.49,2.28,2.1,3.5.18.3.24.55.06.88-.79,1.4-1.49,2.86-2.59,4.08-.61.67-1.28,1.19-2.28,1.25-1.13.06-1.77.82-1.7,1.8.09.97.85,1.52,2.01,1.46,2.04-.09,3.53-1.16,4.72-2.68.7-.88,1.31-1.86,1.98-2.8,4.26,7.18,12.42,7.49,16.89.03.7.97,1.31,1.98,2.04,2.89,1.25,1.52,2.8,2.56,4.87,2.56,1.03,0,1.7-.58,1.77-1.49.06-.91-.52-1.7-1.52-1.73ZM70.36,33.5c-1.37-.43-2.34-1.34-3.07-2.44-2.4-3.56-2.4-2.43-.03-5.99.76-1.1,1.73-2.01,3.1-2.44v10.87ZM76.81,31c-.73,1.13-1.7,2.07-3.13,2.5v-10.87c1.43.43,2.4,1.37,3.17,2.53,2.28,3.47,2.28,2.34-.03,5.84ZM87.61,33.83c-1.19-.06-2.01-.7-2.68-1.55-1.03-1.31-2.34-2.71-2.34-4.23-.03-1.43,1.28-2.83,2.22-4.08.73-.91,1.55-1.64,2.86-1.67.94-.03,1.52-.85,1.46-1.8-.09-.85-.73-1.43-1.67-1.43-2.07-.03-3.62,1-4.9,2.5-.79.88-1.37,1.92-2.1,3.07-2.04-3.23-4.5-5.6-8.49-5.57-3.96,0-6.39,2.4-8.37,5.48-.7-.97-1.31-1.95-2.04-2.83-1.25-1.58-2.8-2.65-4.93-2.65-1,0-1.7.58-1.77,1.49-.03.91.55,1.7,1.52,1.73,1.37.03,2.19.85,2.89,1.8.85,1.1,1.49,2.28,2.1,3.5.18.3.24.55.06.88-.79,1.4-1.49,2.86-2.59,4.08-.61.67-1.28,1.19-2.28,1.25-1.13.06-1.77.82-1.7,1.8.09.97.85,1.52,2.01,1.46,2.04-.09,3.53-1.16,4.72-2.68.7-.88,1.31-1.86,1.98-2.8,4.26,7.18,12.42,7.49,16.89.03.7.97,1.31,1.98,2.04,2.89,1.25,1.52,2.8,2.56,4.87,2.56,1.03,0,1.7-.58,1.77-1.49.06-.91-.52-1.7-1.52-1.73ZM70.36,33.5c-1.37-.43-2.34-1.34-3.07-2.44-2.4-3.56-2.4-2.43-.03-5.99.76-1.1,1.73-2.01,3.1-2.44v10.87ZM76.81,31c-.73,1.13-1.7,2.07-3.13,2.5v-10.87c1.43.43,2.4,1.37,3.17,2.53,2.28,3.47,2.28,2.34-.03,5.84ZM87.61,33.83c-1.19-.06-2.01-.7-2.68-1.55-1.03-1.31-2.34-2.71-2.34-4.23-.03-1.43,1.28-2.83,2.22-4.08.73-.91,1.55-1.64,2.86-1.67.94-.03,1.52-.85,1.46-1.8-.09-.85-.73-1.43-1.67-1.43-2.07-.03-3.62,1-4.9,2.5-.79.88-1.37,1.92-2.1,3.07-2.04-3.23-4.5-5.6-8.49-5.57-3.96,0-6.39,2.4-8.37,5.48-.7-.97-1.31-1.95-2.04-2.83-1.25-1.58-2.8-2.65-4.93-2.65-1,0-1.7.58-1.77,1.49-.03.91.55,1.7,1.52,1.73,1.37.03,2.19.85,2.89,1.8.85,1.1,1.49,2.28,2.1,3.5.18.3.24.55.06.88-.79,1.4-1.49,2.86-2.59,4.08-.61.67-1.28,1.19-2.28,1.25-1.13.06-1.77.82-1.7,1.8.09.97.85,1.52,2.01,1.46,2.04-.09,3.53-1.16,4.72-2.68.7-.88,1.31-1.86,1.98-2.8,4.26,7.18,12.42,7.49,16.89.03.7.97,1.31,1.98,2.04,2.89,1.25,1.52,2.8,2.56,4.87,2.56,1.03,0,1.7-.58,1.77-1.49.06-.91-.52-1.7-1.52-1.73ZM70.36,33.5c-1.37-.43-2.34-1.34-3.07-2.44-2.4-3.56-2.4-2.43-.03-5.99.76-1.1,1.73-2.01,3.1-2.44v10.87ZM76.81,31c-.73,1.13-1.7,2.07-3.13,2.5v-10.87c1.43.43,2.4,1.37,3.17,2.53,2.28,3.47,2.28,2.34-.03,5.84ZM87.61,33.83c-1.19-.06-2.01-.7-2.68-1.55-1.03-1.31-2.34-2.71-2.34-4.23-.03-1.43,1.28-2.83,2.22-4.08.73-.91,1.55-1.64,2.86-1.67.94-.03,1.52-.85,1.46-1.8-.09-.85-.73-1.43-1.67-1.43-2.07-.03-3.62,1-4.9,2.5-.79.88-1.37,1.92-2.1,3.07-2.04-3.23-4.5-5.6-8.49-5.57-3.96,0-6.39,2.4-8.37,5.48-.7-.97-1.31-1.95-2.04-2.83-1.25-1.58-2.8-2.65-4.93-2.65-1,0-1.7.58-1.77,1.49-.03.91.55,1.7,1.52,1.73,1.37.03,2.19.85,2.89,1.8.85,1.1,1.49,2.28,2.1,3.5.18.3.24.55.06.88-.79,1.4-1.49,2.86-2.59,4.08-.61.67-1.28,1.19-2.28,1.25-1.13.06-1.77.82-1.7,1.8.09.97.85,1.52,2.01,1.46,2.04-.09,3.53-1.16,4.72-2.68.7-.88,1.31-1.86,1.98-2.8,4.26,7.18,12.42,7.49,16.89.03.7.97,1.31,1.98,2.04,2.89,1.25,1.52,2.8,2.56,4.87,2.56,1.03,0,1.7-.58,1.77-1.49.06-.91-.52-1.7-1.52-1.73ZM70.36,33.5c-1.37-.43-2.34-1.34-3.07-2.44-2.4-3.56-2.4-2.43-.03-5.99.76-1.1,1.73-2.01,3.1-2.44v10.87ZM76.81,31c-.73,1.13-1.7,2.07-3.13,2.5v-10.87c1.43.43,2.4,1.37,3.17,2.53,2.28,3.47,2.28,2.34-.03,5.84ZM87.61,33.83c-1.19-.06-2.01-.7-2.68-1.55-1.03-1.31-2.34-2.71-2.34-4.23-.03-1.43,1.28-2.83,2.22-4.08.73-.91,1.55-1.64,2.86-1.67.94-.03,1.52-.85,1.46-1.8-.09-.85-.73-1.43-1.67-1.43-2.07-.03-3.62,1-4.9,2.5-.79.88-1.37,1.92-2.1,3.07-2.04-3.23-4.5-5.6-8.49-5.57-3.96,0-6.39,2.4-8.37,5.48-.7-.97-1.31-1.95-2.04-2.83-1.25-1.58-2.8-2.65-4.93-2.65-1,0-1.7.58-1.77,1.49-.03.91.55,1.7,1.52,1.73,1.37.03,2.19.85,2.89,1.8.85,1.1,1.49,2.28,2.1,3.5.18.3.24.55.06.88-.79,1.4-1.49,2.86-2.59,4.08-.61.67-1.28,1.19-2.28,1.25-1.13.06-1.77.82-1.7,1.8.09.97.85,1.52,2.01,1.46,2.04-.09,3.53-1.16,4.72-2.68.7-.88,1.31-1.86,1.98-2.8,4.26,7.18,12.42,7.49,16.89.03.7.97,1.31,1.98,2.04,2.89,1.25,1.52,2.8,2.56,4.87,2.56,1.03,0,1.7-.58,1.77-1.49.06-.91-.52-1.7-1.52-1.73ZM70.36,33.5c-1.37-.43-2.34-1.34-3.07-2.44-2.4-3.56-2.4-2.43-.03-5.99.76-1.1,1.73-2.01,3.1-2.44v10.87ZM76.81,31c-.73,1.13-1.7,2.07-3.13,2.5v-10.87c1.43.43,2.4,1.37,3.17,2.53,2.28,3.47,2.28,2.34-.03,5.84ZM87.61,33.83c-1.19-.06-2.01-.7-2.68-1.55-1.03-1.31-2.34-2.71-2.34-4.23-.03-1.43,1.28-2.83,2.22-4.08.73-.91,1.55-1.64,2.86-1.67.94-.03,1.52-.85,1.46-1.8-.09-.85-.73-1.43-1.67-1.43-2.07-.03-3.62,1-4.9,2.5-.79.88-1.37,1.92-2.1,3.07-2.04-3.23-4.5-5.6-8.49-5.57-3.96,0-6.39,2.4-8.37,5.48-.7-.97-1.31-1.95-2.04-2.83-1.25-1.58-2.8-2.65-4.93-2.65-1,0-1.7.58-1.77,1.49-.03.91.55,1.7,1.52,1.73,1.37.03,2.19.85,2.89,1.8.85,1.1,1.49,2.28,2.1,3.5.18.3.24.55.06.88-.79,1.4-1.49,2.86-2.59,4.08-.61.67-1.28,1.19-2.28,1.25-1.13.06-1.77.82-1.7,1.8.09.97.85,1.52,2.01,1.46,2.04-.09,3.53-1.16,4.72-2.68.7-.88,1.31-1.86,1.98-2.8,4.26,7.18,12.42,7.49,16.89.03.7.97,1.31,1.98,2.04,2.89,1.25,1.52,2.8,2.56,4.87,2.56,1.03,0,1.7-.58,1.77-1.49.06-.91-.52-1.7-1.52-1.73ZM70.36,33.5c-1.37-.43-2.34-1.34-3.07-2.44-2.4-3.56-2.4-2.43-.03-5.99.76-1.1,1.73-2.01,3.1-2.44v10.87ZM76.81,31c-.73,1.13-1.7,2.07-3.13,2.5v-10.87c1.43.43,2.4,1.37,3.17,2.53,2.28,3.47,2.28,2.34-.03,5.84ZM87.61,33.83c-1.19-.06-2.01-.7-2.68-1.55-1.03-1.31-2.34-2.71-2.34-4.23-.03-1.43,1.28-2.83,2.22-4.08.73-.91,1.55-1.64,2.86-1.67.94-.03,1.52-.85,1.46-1.8-.09-.85-.73-1.43-1.67-1.43-2.07-.03-3.62,1-4.9,2.5-.79.88-1.37,1.92-2.1,3.07-2.04-3.23-4.5-5.6-8.49-5.57-3.96,0-6.39,2.4-8.37,5.48-.7-.97-1.31-1.95-2.04-2.83-1.25-1.58-2.8-2.65-4.93-2.65-1,0-1.7.58-1.77,1.49-.03.91.55,1.7,1.52,1.73,1.37.03,2.19.85,2.89,1.8.85,1.1,1.49,2.28,2.1,3.5.18.3.24.55.06.88-.79,1.4-1.49,2.86-2.59,4.08-.61.67-1.28,1.19-2.28,1.25-1.13.06-1.77.82-1.7,1.8.09.97.85,1.52,2.01,1.46,2.04-.09,3.53-1.16,4.72-2.68.7-.88,1.31-1.86,1.98-2.8,4.26,7.18,12.42,7.49,16.89.03.7.97,1.31,1.98,2.04,2.89,1.25,1.52,2.8,2.56,4.87,2.56,1.03,0,1.7-.58,1.77-1.49.06-.91-.52-1.7-1.52-1.73ZM70.36,33.5c-1.37-.43-2.34-1.34-3.07-2.44-2.4-3.56-2.4-2.43-.03-5.99.76-1.1,1.73-2.01,3.1-2.44v10.87ZM76.81,31c-.73,1.13-1.7,2.07-3.13,2.5v-10.87c1.43.43,2.4,1.37,3.17,2.53,2.28,3.47,2.28,2.34-.03,5.84ZM87.61,33.83c-1.19-.06-2.01-.7-2.68-1.55-1.03-1.31-2.34-2.71-2.34-4.23-.03-1.43,1.28-2.83,2.22-4.08.73-.91,1.55-1.64,2.86-1.67.94-.03,1.52-.85,1.46-1.8-.09-.85-.73-1.43-1.67-1.43-2.07-.03-3.62,1-4.9,2.5-.79.88-1.37,1.92-2.1,3.07-2.04-3.23-4.5-5.6-8.49-5.57-3.96,0-6.39,2.4-8.37,5.48-.7-.97-1.31-1.95-2.04-2.83-1.25-1.58-2.8-2.65-4.93-2.65-1,0-1.7.58-1.77,1.49-.03.91.55,1.7,1.52,1.73,1.37.03,2.19.85,2.89,1.8.85,1.1,1.49,2.28,2.1,3.5.18.3.24.55.06.88-.79,1.4-1.49,2.86-2.59,4.08-.61.67-1.28,1.19-2.28,1.25-1.13.06-1.77.82-1.7,1.8.09.97.85,1.52,2.01,1.46,2.04-.09,3.53-1.16,4.72-2.68.7-.88,1.31-1.86,1.98-2.8,4.26,7.18,12.42,7.49,16.89.03.7.97,1.31,1.98,2.04,2.89,1.25,1.52,2.8,2.56,4.87,2.56,1.03,0,1.7-.58,1.77-1.49.06-.91-.52-1.7-1.52-1.73ZM70.36,33.5c-1.37-.43-2.34-1.34-3.07-2.44-2.4-3.56-2.4-2.43-.03-5.99.76-1.1,1.73-2.01,3.1-2.44v10.87ZM76.81,31c-.73,1.13-1.7,2.07-3.13,2.5v-10.87c1.43.43,2.4,1.37,3.17,2.53,2.28,3.47,2.28,2.34-.03,5.84ZM87.61,33.83c-1.19-.06-2.01-.7-2.68-1.55-1.03-1.31-2.34-2.71-2.34-4.23-.03-1.43,1.28-2.83,2.22-4.08.73-.91,1.55-1.64,2.86-1.67.94-.03,1.52-.85,1.46-1.8-.09-.85-.73-1.43-1.67-1.43-2.07-.03-3.62,1-4.9,2.5-.79.88-1.37,1.92-2.1,3.07-2.04-3.23-4.5-5.6-8.49-5.57-3.96,0-6.39,2.4-8.37,5.48-.7-.97-1.31-1.95-2.04-2.83-1.25-1.58-2.8-2.65-4.93-2.65-1,0-1.7.58-1.77,1.49-.03.91.55,1.7,1.52,1.73,1.37.03,2.19.85,2.89,1.8.85,1.1,1.49,2.28,2.1,3.5.18.3.24.55.06.88-.79,1.4-1.49,2.86-2.59,4.08-.61.67-1.28,1.19-2.28,1.25-1.13.06-1.77.82-1.7,1.8.09.97.85,1.52,2.01,1.46,2.04-.09,3.53-1.16,4.72-2.68.7-.88,1.31-1.86,1.98-2.8,4.26,7.18,12.42,7.49,16.89.03.7.97,1.31,1.98,2.04,2.89,1.25,1.52,2.8,2.56,4.87,2.56,1.03,0,1.7-.58,1.77-1.49.06-.91-.52-1.7-1.52-1.73ZM70.36,33.5c-1.37-.43-2.34-1.34-3.07-2.44-2.4-3.56-2.4-2.43-.03-5.99.76-1.1,1.73-2.01,3.1-2.44v10.87ZM76.81,31c-.73,1.13-1.7,2.07-3.13,2.5v-10.87c1.43.43,2.4,1.37,3.17,2.53,2.28,3.47,2.28,2.34-.03,5.84ZM87.61,33.83c-1.19-.06-2.01-.7-2.68-1.55-1.03-1.31-2.34-2.71-2.34-4.23-.03-1.43,1.28-2.83,2.22-4.08.73-.91,1.55-1.64,2.86-1.67.94-.03,1.52-.85,1.46-1.8-.09-.85-.73-1.43-1.67-1.43-2.07-.03-3.62,1-4.9,2.5-.79.88-1.37,1.92-2.1,3.07-2.04-3.23-4.5-5.6-8.49-5.57-3.96,0-6.39,2.4-8.37,5.48-.7-.97-1.31-1.95-2.04-2.83-1.25-1.58-2.8-2.65-4.93-2.65-1,0-1.7.58-1.77,1.49-.03.91.55,1.7,1.52,1.73,1.37.03,2.19.85,2.89,1.8.85,1.1,1.49,2.28,2.1,3.5.18.3.24.55.06.88-.79,1.4-1.49,2.86-2.59,4.08-.61.67-1.28,1.19-2.28,1.25-1.13.06-1.77.82-1.7,1.8.09.97.85,1.52,2.01,1.46,2.04-.09,3.53-1.16,4.72-2.68.7-.88,1.31-1.86,1.98-2.8,4.26,7.18,12.42,7.49,16.89.03.7.97,1.31,1.98,2.04,2.89,1.25,1.52,2.8,2.56,4.87,2.56,1.03,0,1.7-.58,1.77-1.49.06-.91-.52-1.7-1.52-1.73ZM70.36,33.5c-1.37-.43-2.34-1.34-3.07-2.44-2.4-3.56-2.4-2.43-.03-5.99.76-1.1,1.73-2.01,3.1-2.44v10.87ZM76.81,31c-.73,1.13-1.7,2.07-3.13,2.5v-10.87c1.43.43,2.4,1.37,3.17,2.53,2.28,3.47,2.28,2.34-.03,5.84ZM90.63,11.59h-18.63c-6.24,0-12.51,0-18.75.03-2.65,0-4.2,1.55-4.2,4.2v24.47c0,2.71,1.55,4.23,4.29,4.23,12.45.03,24.89.03,37.37,0,2.71,0,4.23-1.52,4.23-4.26V15.91c0-2.8-1.49-4.29-4.32-4.32ZM91.72,39.86c0,1.34-.06,1.37-1.43,1.37-12.2.03-24.41.03-36.61,0-1.31,0-1.37-.06-1.37-1.37v-23.49q0-1.46,1.4-1.46h18.32c6.09,0,12.2.03,18.29-.03,1.1,0,1.43.3,1.4,1.4-.03,7.88,0,15.73,0,23.59ZM87.68,22.3c.94-.03,1.52-.85,1.46-1.8-.09-.85-.73-1.43-1.67-1.43-2.07-.03-3.62,1-4.9,2.5-.79.88-1.37,1.92-2.1,3.07-2.04-3.23-4.5-5.6-8.49-5.57-3.96,0-6.39,2.4-8.37,5.48-.7-.97-1.31-1.95-2.04-2.83-1.25-1.58-2.8-2.65-4.93-2.65-1,0-1.7.58-1.77,1.49-.03.91.55,1.7,1.52,1.73,1.37.03,2.19.85,2.89,1.8.85,1.1,1.49,2.28,2.1,3.5.18.3.24.55.06.88-.79,1.4-1.49,2.86-2.59,4.08-.61.67-1.28,1.19-2.28,1.25-1.13.06-1.77.82-1.7,1.8.09.97.85,1.52,2.01,1.46,2.04-.09,3.53-1.16,4.72-2.68.7-.88,1.31-1.86,1.98-2.8,4.26,7.18,12.42,7.49,16.89.03.7.97,1.31,1.98,2.04,2.89,1.25,1.52,2.8,2.56,4.87,2.56,1.03,0,1.7-.58,1.77-1.49.06-.91-.52-1.7-1.52-1.73-1.19-.06-2.01-.7-2.68-1.55-1.03-1.31-2.34-2.71-2.34-4.23-.03-1.43,1.28-2.83,2.22-4.08.73-.91,1.55-1.64,2.86-1.67ZM70.36,33.5c-1.37-.43-2.34-1.34-3.07-2.44-2.4-3.56-2.4-2.43-.03-5.99.76-1.1,1.73-2.01,3.1-2.44v10.87ZM76.81,31c-.73,1.13-1.7,2.07-3.13,2.5v-10.87c1.43.43,2.4,1.37,3.17,2.53,2.28,3.47,2.28,2.34-.03,5.84ZM87.61,33.83c-1.19-.06-2.01-.7-2.68-1.55-1.03-1.31-2.34-2.71-2.34-4.23-.03-1.43,1.28-2.83,2.22-4.08.73-.91,1.55-1.64,2.86-1.67.94-.03,1.52-.85,1.46-1.8-.09-.85-.73-1.43-1.67-1.43-2.07-.03-3.62,1-4.9,2.5-.79.88-1.37,1.92-2.1,3.07-2.04-3.23-4.5-5.6-8.49-5.57-3.96,0-6.39,2.4-8.37,5.48-.7-.97-1.31-1.95-2.04-2.83-1.25-1.58-2.8-2.65-4.93-2.65-1,0-1.7.58-1.77,1.49-.03.91.55,1.7,1.52,1.73,1.37.03,2.19.85,2.89,1.8.85,1.1,1.49,2.28,2.1,3.5.18.3.24.55.06.88-.79,1.4-1.49,2.86-2.59,4.08-.61.67-1.28,1.19-2.28,1.25-1.13.06-1.77.82-1.7,1.8.09.97.85,1.52,2.01,1.46,2.04-.09,3.53-1.16,4.72-2.68.7-.88,1.31-1.86,1.98-2.8,4.26,7.18,12.42,7.49,16.89.03.7.97,1.31,1.98,2.04,2.89,1.25,1.52,2.8,2.56,4.87,2.56,1.03,0,1.7-.58,1.77-1.49.06-.91-.52-1.7-1.52-1.73ZM70.36,33.5c-1.37-.43-2.34-1.34-3.07-2.44-2.4-3.56-2.4-2.43-.03-5.99.76-1.1,1.73-2.01,3.1-2.44v10.87ZM76.81,31c-.73,1.13-1.7,2.07-3.13,2.5v-10.87c1.43.43,2.4,1.37,3.17,2.53,2.28,3.47,2.28,2.34-.03,5.84ZM87.61,33.83c-1.19-.06-2.01-.7-2.68-1.55-1.03-1.31-2.34-2.71-2.34-4.23-.03-1.43,1.28-2.83,2.22-4.08.73-.91,1.55-1.64,2.86-1.67.94-.03,1.52-.85,1.46-1.8-.09-.85-.73-1.43-1.67-1.43-2.07-.03-3.62,1-4.9,2.5-.79.88-1.37,1.92-2.1,3.07-2.04-3.23-4.5-5.6-8.49-5.57-3.96,0-6.39,2.4-8.37,5.48-.7-.97-1.31-1.95-2.04-2.83-1.25-1.58-2.8-2.65-4.93-2.65-1,0-1.7.58-1.77,1.49-.03.91.55,1.7,1.52,1.73,1.37.03,2.19.85,2.89,1.8.85,1.1,1.49,2.28,2.1,3.5.18.3.24.55.06.88-.79,1.4-1.49,2.86-2.59,4.08-.61.67-1.28,1.19-2.28,1.25-1.13.06-1.77.82-1.7,1.8.09.97.85,1.52,2.01,1.46,2.04-.09,3.53-1.16,4.72-2.68.7-.88,1.31-1.86,1.98-2.8,4.26,7.18,12.42,7.49,16.89.03.7.97,1.31,1.98,2.04,2.89,1.25,1.52,2.8,2.56,4.87,2.56,1.03,0,1.7-.58,1.77-1.49.06-.91-.52-1.7-1.52-1.73ZM70.36,33.5c-1.37-.43-2.34-1.34-3.07-2.44-2.4-3.56-2.4-2.43-.03-5.99.76-1.1,1.73-2.01,3.1-2.44v10.87ZM76.81,31c-.73,1.13-1.7,2.07-3.13,2.5v-10.87c1.43.43,2.4,1.37,3.17,2.53,2.28,3.47,2.28,2.34-.03,5.84ZM87.61,33.83c-1.19-.06-2.01-.7-2.68-1.55-1.03-1.31-2.34-2.71-2.34-4.23-.03-1.43,1.28-2.83,2.22-4.08.73-.91,1.55-1.64,2.86-1.67.94-.03,1.52-.85,1.46-1.8-.09-.85-.73-1.43-1.67-1.43-2.07-.03-3.62,1-4.9,2.5-.79.88-1.37,1.92-2.1,3.07-2.04-3.23-4.5-5.6-8.49-5.57-3.96,0-6.39,2.4-8.37,5.48-.7-.97-1.31-1.95-2.04-2.83-1.25-1.58-2.8-2.65-4.93-2.65-1,0-1.7.58-1.77,1.49-.03.91.55,1.7,1.52,1.73,1.37.03,2.19.85,2.89,1.8.85,1.1,1.49,2.28,2.1,3.5.18.3.24.55.06.88-.79,1.4-1.49,2.86-2.59,4.08-.61.67-1.28,1.19-2.28,1.25-1.13.06-1.77.82-1.7,1.8.09.97.85,1.52,2.01,1.46,2.04-.09,3.53-1.16,4.72-2.68.7-.88,1.31-1.86,1.98-2.8,4.26,7.18,12.42,7.49,16.89.03.7.97,1.31,1.98,2.04,2.89,1.25,1.52,2.8,2.56,4.87,2.56,1.03,0,1.7-.58,1.77-1.49.06-.91-.52-1.7-1.52-1.73ZM70.36,33.5c-1.37-.43-2.34-1.34-3.07-2.44-2.4-3.56-2.4-2.43-.03-5.99.76-1.1,1.73-2.01,3.1-2.44v10.87ZM76.81,31c-.73,1.13-1.7,2.07-3.13,2.5v-10.87c1.43.43,2.4,1.37,3.17,2.53,2.28,3.47,2.28,2.34-.03,5.84ZM87.61,33.83c-1.19-.06-2.01-.7-2.68-1.55-1.03-1.31-2.34-2.71-2.34-4.23-.03-1.43,1.28-2.83,2.22-4.08.73-.91,1.55-1.64,2.86-1.67.94-.03,1.52-.85,1.46-1.8-.09-.85-.73-1.43-1.67-1.43-2.07-.03-3.62,1-4.9,2.5-.79.88-1.37,1.92-2.1,3.07-2.04-3.23-4.5-5.6-8.49-5.57-3.96,0-6.39,2.4-8.37,5.48-.7-.97-1.31-1.95-2.04-2.83-1.25-1.58-2.8-2.65-4.93-2.65-1,0-1.7.58-1.77,1.49-.03.91.55,1.7,1.52,1.73,1.37.03,2.19.85,2.89,1.8.85,1.1,1.49,2.28,2.1,3.5.18.3.24.55.06.88-.79,1.4-1.49,2.86-2.59,4.08-.61.67-1.28,1.19-2.28,1.25-1.13.06-1.77.82-1.7,1.8.09.97.85,1.52,2.01,1.46,2.04-.09,3.53-1.16,4.72-2.68.7-.88,1.31-1.86,1.98-2.8,4.26,7.18,12.42,7.49,16.89.03.7.97,1.31,1.98,2.04,2.89,1.25,1.52,2.8,2.56,4.87,2.56,1.03,0,1.7-.58,1.77-1.49.06-.91-.52-1.7-1.52-1.73ZM70.36,33.5c-1.37-.43-2.34-1.34-3.07-2.44-2.4-3.56-2.4-2.43-.03-5.99.76-1.1,1.73-2.01,3.1-2.44v10.87ZM76.81,31c-.73,1.13-1.7,2.07-3.13,2.5v-10.87c1.43.43,2.4,1.37,3.17,2.53,2.28,3.47,2.28,2.34-.03,5.84ZM87.61,33.83c-1.19-.06-2.01-.7-2.68-1.55-1.03-1.31-2.34-2.71-2.34-4.23-.03-1.43,1.28-2.83,2.22-4.08.73-.91,1.55-1.64,2.86-1.67.94-.03,1.52-.85,1.46-1.8-.09-.85-.73-1.43-1.67-1.43-2.07-.03-3.62,1-4.9,2.5-.79.88-1.37,1.92-2.1,3.07-2.04-3.23-4.5-5.6-8.49-5.57-3.96,0-6.39,2.4-8.37,5.48-.7-.97-1.31-1.95-2.04-2.83-1.25-1.58-2.8-2.65-4.93-2.65-1,0-1.7.58-1.77,1.49-.03.91.55,1.7,1.52,1.73,1.37.03,2.19.85,2.89,1.8.85,1.1,1.49,2.28,2.1,3.5.18.3.24.55.06.88-.79,1.4-1.49,2.86-2.59,4.08-.61.67-1.28,1.19-2.28,1.25-1.13.06-1.77.82-1.7,1.8.09.97.85,1.52,2.01,1.46,2.04-.09,3.53-1.16,4.72-2.68.7-.88,1.31-1.86,1.98-2.8,4.26,7.18,12.42,7.49,16.89.03.7.97,1.31,1.98,2.04,2.89,1.25,1.52,2.8,2.56,4.87,2.56,1.03,0,1.7-.58,1.77-1.49.06-.91-.52-1.7-1.52-1.73ZM70.36,33.5c-1.37-.43-2.34-1.34-3.07-2.44-2.4-3.56-2.4-2.43-.03-5.99.76-1.1,1.73-2.01,3.1-2.44v10.87ZM76.81,31c-.73,1.13-1.7,2.07-3.13,2.5v-10.87c1.43.43,2.4,1.37,3.17,2.53,2.28,3.47,2.28,2.34-.03,5.84ZM87.61,33.83c-1.19-.06-2.01-.7-2.68-1.55-1.03-1.31-2.34-2.71-2.34-4.23-.03-1.43,1.28-2.83,2.22-4.08.73-.91,1.55-1.64,2.86-1.67.94-.03,1.52-.85,1.46-1.8-.09-.85-.73-1.43-1.67-1.43-2.07-.03-3.62,1-4.9,2.5-.79.88-1.37,1.92-2.1,3.07-2.04-3.23-4.5-5.6-8.49-5.57-3.96,0-6.39,2.4-8.37,5.48-.7-.97-1.31-1.95-2.04-2.83-1.25-1.58-2.8-2.65-4.93-2.65-1,0-1.7.58-1.77,1.49-.03.91.55,1.7,1.52,1.73,1.37.03,2.19.85,2.89,1.8.85,1.1,1.49,2.28,2.1,3.5.18.3.24.55.06.88-.79,1.4-1.49,2.86-2.59,4.08-.61.67-1.28,1.19-2.28,1.25-1.13.06-1.77.82-1.7,1.8.09.97.85,1.52,2.01,1.46,2.04-.09,3.53-1.16,4.72-2.68.7-.88,1.31-1.86,1.98-2.8,4.26,7.18,12.42,7.49,16.89.03.7.97,1.31,1.98,2.04,2.89,1.25,1.52,2.8,2.56,4.87,2.56,1.03,0,1.7-.58,1.77-1.49.06-.91-.52-1.7-1.52-1.73ZM70.36,33.5c-1.37-.43-2.34-1.34-3.07-2.44-2.4-3.56-2.4-2.43-.03-5.99.76-1.1,1.73-2.01,3.1-2.44v10.87ZM76.81,31c-.73,1.13-1.7,2.07-3.13,2.5v-10.87c1.43.43,2.4,1.37,3.17,2.53,2.28,3.47,2.28,2.34-.03,5.84ZM87.61,33.83c-1.19-.06-2.01-.7-2.68-1.55-1.03-1.31-2.34-2.71-2.34-4.23-.03-1.43,1.28-2.83,2.22-4.08.73-.91,1.55-1.64,2.86-1.67.94-.03,1.52-.85,1.46-1.8-.09-.85-.73-1.43-1.67-1.43-2.07-.03-3.62,1-4.9,2.5-.79.88-1.37,1.92-2.1,3.07-2.04-3.23-4.5-5.6-8.49-5.57-3.96,0-6.39,2.4-8.37,5.48-.7-.97-1.31-1.95-2.04-2.83-1.25-1.58-2.8-2.65-4.93-2.65-1,0-1.7.58-1.77,1.49-.03.91.55,1.7,1.52,1.73,1.37.03,2.19.85,2.89,1.8.85,1.1,1.49,2.28,2.1,3.5.18.3.24.55.06.88-.79,1.4-1.49,2.86-2.59,4.08-.61.67-1.28,1.19-2.28,1.25-1.13.06-1.77.82-1.7,1.8.09.97.85,1.52,2.01,1.46,2.04-.09,3.53-1.16,4.72-2.68.7-.88,1.31-1.86,1.98-2.8,4.26,7.18,12.42,7.49,16.89.03.7.97,1.31,1.98,2.04,2.89,1.25,1.52,2.8,2.56,4.87,2.56,1.03,0,1.7-.58,1.77-1.49.06-.91-.52-1.7-1.52-1.73ZM70.36,33.5c-1.37-.43-2.34-1.34-3.07-2.44-2.4-3.56-2.4-2.43-.03-5.99.76-1.1,1.73-2.01,3.1-2.44v10.87ZM76.81,31c-.73,1.13-1.7,2.07-3.13,2.5v-10.87c1.43.43,2.4,1.37,3.17,2.53,2.28,3.47,2.28,2.34-.03,5.84ZM87.61,33.83c-1.19-.06-2.01-.7-2.68-1.55-1.03-1.31-2.34-2.71-2.34-4.23-.03-1.43,1.28-2.83,2.22-4.08.73-.91,1.55-1.64,2.86-1.67.94-.03,1.52-.85,1.46-1.8-.09-.85-.73-1.43-1.67-1.43-2.07-.03-3.62,1-4.9,2.5-.79.88-1.37,1.92-2.1,3.07-2.04-3.23-4.5-5.6-8.49-5.57-3.96,0-6.39,2.4-8.37,5.48-.7-.97-1.31-1.95-2.04-2.83-1.25-1.58-2.8-2.65-4.93-2.65-1,0-1.7.58-1.77,1.49-.03.91.55,1.7,1.52,1.73,1.37.03,2.19.85,2.89,1.8.85,1.1,1.49,2.28,2.1,3.5.18.3.24.55.06.88-.79,1.4-1.49,2.86-2.59,4.08-.61.67-1.28,1.19-2.28,1.25-1.13.06-1.77.82-1.7,1.8.09.97.85,1.52,2.01,1.46,2.04-.09,3.53-1.16,4.72-2.68.7-.88,1.31-1.86,1.98-2.8,4.26,7.18,12.42,7.49,16.89.03.7.97,1.31,1.98,2.04,2.89,1.25,1.52,2.8,2.56,4.87,2.56,1.03,0,1.7-.58,1.77-1.49.06-.91-.52-1.7-1.52-1.73ZM70.36,33.5c-1.37-.43-2.34-1.34-3.07-2.44-2.4-3.56-2.4-2.43-.03-5.99.76-1.1,1.73-2.01,3.1-2.44v10.87ZM76.81,31c-.73,1.13-1.7,2.07-3.13,2.5v-10.87c1.43.43,2.4,1.37,3.17,2.53,2.28,3.47,2.28,2.34-.03,5.84ZM87.61,33.83c-1.19-.06-2.01-.7-2.68-1.55-1.03-1.31-2.34-2.71-2.34-4.23-.03-1.43,1.28-2.83,2.22-4.08.73-.91,1.55-1.64,2.86-1.67.94-.03,1.52-.85,1.46-1.8-.09-.85-.73-1.43-1.67-1.43-2.07-.03-3.62,1-4.9,2.5-.79.88-1.37,1.92-2.1,3.07-2.04-3.23-4.5-5.6-8.49-5.57-3.96,0-6.39,2.4-8.37,5.48-.7-.97-1.31-1.95-2.04-2.83-1.25-1.58-2.8-2.65-4.93-2.65-1,0-1.7.58-1.77,1.49-.03.91.55,1.7,1.52,1.73,1.37.03,2.19.85,2.89,1.8.85,1.1,1.49,2.28,2.1,3.5.18.3.24.55.06.88-.79,1.4-1.49,2.86-2.59,4.08-.61.67-1.28,1.19-2.28,1.25-1.13.06-1.77.82-1.7,1.8.09.97.85,1.52,2.01,1.46,2.04-.09,3.53-1.16,4.72-2.68.7-.88,1.31-1.86,1.98-2.8,4.26,7.18,12.42,7.49,16.89.03.7.97,1.31,1.98,2.04,2.89,1.25,1.52,2.8,2.56,4.87,2.56,1.03,0,1.7-.58,1.77-1.49.06-.91-.52-1.7-1.52-1.73ZM70.36,33.5c-1.37-.43-2.34-1.34-3.07-2.44-2.4-3.56-2.4-2.43-.03-5.99.76-1.1,1.73-2.01,3.1-2.44v10.87ZM76.81,31c-.73,1.13-1.7,2.07-3.13,2.5v-10.87c1.43.43,2.4,1.37,3.17,2.53,2.28,3.47,2.28,2.34-.03,5.84ZM87.61,33.83c-1.19-.06-2.01-.7-2.68-1.55-1.03-1.31-2.34-2.71-2.34-4.23-.03-1.43,1.28-2.83,2.22-4.08.73-.91,1.55-1.64,2.86-1.67.94-.03,1.52-.85,1.46-1.8-.09-.85-.73-1.43-1.67-1.43-2.07-.03-3.62,1-4.9,2.5-.79.88-1.37,1.92-2.1,3.07-2.04-3.23-4.5-5.6-8.49-5.57-3.96,0-6.39,2.4-8.37,5.48-.7-.97-1.31-1.95-2.04-2.83-1.25-1.58-2.8-2.65-4.93-2.65-1,0-1.7.58-1.77,1.49-.03.91.55,1.7,1.52,1.73,1.37.03,2.19.85,2.89,1.8.85,1.1,1.49,2.28,2.1,3.5.18.3.24.55.06.88-.79,1.4-1.49,2.86-2.59,4.08-.61.67-1.28,1.19-2.28,1.25-1.13.06-1.77.82-1.7,1.8.09.97.85,1.52,2.01,1.46,2.04-.09,3.53-1.16,4.72-2.68.7-.88,1.31-1.86,1.98-2.8,4.26,7.18,12.42,7.49,16.89.03.7.97,1.31,1.98,2.04,2.89,1.25,1.52,2.8,2.56,4.87,2.56,1.03,0,1.7-.58,1.77-1.49.06-.91-.52-1.7-1.52-1.73ZM70.36,33.5c-1.37-.43-2.34-1.34-3.07-2.44-2.4-3.56-2.4-2.43-.03-5.99.76-1.1,1.73-2.01,3.1-2.44v10.87ZM76.81,31c-.73,1.13-1.7,2.07-3.13,2.5v-10.87c1.43.43,2.4,1.37,3.17,2.53,2.28,3.47,2.28,2.34-.03,5.84Z"/>
      <path class="cls-1" d="M31.16,56.63c-.03.88-.8,1.6-1.69,1.57-.92-.03-1.58-.74-1.56-1.68.02-.89.79-1.63,1.66-1.6.86.03,1.61.84,1.59,1.7Z"/>
      <path class="cls-1" d="M108.52,53.37c-.64-.09-.58-.67-.73-1.07-.82-2.04-2.28-3.29-4.41-3.68-1.61-.3-1.67-.36-1.67-2.04V12.78c0-.64.03-1.25-.21-1.83-.21-.58-.58-1-1.25-.97-.67.06-1.03.49-1.19,1.1-.12.52-.12,1.07-.12,1.61v33.26c0,.4.03.79,0,1.19-.06,1.07-.3,1.31-1.37,1.4-.37.03-.7,0-1.07,0-16.34.03-32.69.03-49,0-2.37,0-2.43-.06-2.43-2.37V11.77c0-.4-.03-.76,0-1.16.15-1.55,1.07-2.62,2.59-2.92.61-.15,1.22-.12,1.83-.12h45.22c.33,0,.64,0,.97.03,2.01.09,3.2,1.28,3.26,3.26.03,2.4,0,4.81,0,7.24,0,.43,0,.85.06,1.28.09.76.4,1.43,1.28,1.46.91.03,1.19-.67,1.34-1.43.03-.09.06-.21.06-.3,0-3.04.24-6.12-.15-9.16-.4-2.92-2.62-4.9-5.6-4.93-3.47-.03-6.91,0-10.35,0h-37.04c-2.89,0-4.96,1.4-5.78,3.84-.27.85-.24,1.77-.24,2.65,0,2.56-.03,2.56-2.59,2.59h-21.46c-.67,0-1.34,0-2.04.12-2.86.55-4.69,2.56-4.93,5.45-.03.37,0,.73,0,1.1-.03,10.2-.03,20.39,0,30.58,0,.55-.03,1.1.09,1.61.18.61.52,1.07,1.19,1.04.7-.03,1.13-.43,1.22-1.16.06-.46.03-.91.03-1.4v-29.73c0-.82.03-1.64.21-2.47.4-1.52,1.34-2.31,2.92-2.37.88-.03,1.77,0,2.68,0h20.24c.49,0,.94-.03,1.4.03.58.06.91.4.97.97.06.43.06.85.06,1.28v27.6c-.03,1.58-.24,1.8-1.83,1.8-5.42.03-10.83,0-16.25.03-3.26,0-5.42,1.92-5.9,5.11-.12.82-.15,1.64-.15,2.47v37.19c0,.97.09,1.95.27,2.89.46,2.5,2.68,4.41,5.23,4.44,2.59.03,5.17,0,7.76,0h70c.88,0,1.77,0,2.68-.21.91-.18,1.25.12,1.25,1.07,0,2.01-1.03,3.23-3.01,3.59-.61.09-1.22.12-1.83.12H18.87c-3.71,0-4.81-1.13-4.81-4.81-.03-12.87-.03-38.87-.03-51.74,0-.55.03-1.07-.06-1.61-.09-.61-.43-.97-1.03-1.03-.64-.06-1.03.27-1.28.82-.15.4-.15.85-.15,1.28-.03,13.45-.03,40.08,0,53.53,0,3.65,2.4,6,6.03,6.09,1.55.06,3.07,0,4.63.03,1.31.03,1.55.27,1.61,1.61v1.16c-.06,1.25-.27,1.46-1.46,1.55-1.89.18-2.19.67-1.52,2.37.06.18.09.37.06.52h8.4c.24-.49.82-.73.85-1.37.12-1.16-.61-1.86-2.04-1.86s-1.4,0-1.4-1.4q0-2.28,2.34-2.28c20.94,0,41.91,0,62.84-.03.88,0,1.37.15,1.16,1.16-.03.12,0,.27,0,.43,0,.67.21,1.49-.12,1.98-.3.46-1.19.12-1.83.15-.7.06-1.16.43-1.4,1-.24.61-.15,1.19.3,1.7.15.18.46.21.46.52h8.4c1.19-1.19,1.22-2.4.06-3.04-.49-.27-1-.21-1.49-.15-.94.12-1.19-.21-1.16-1.16.09-2.56.03-2.56,2.56-2.56,1.22,0,2.43.03,3.65,0,2.71-.06,4.87-1.64,5.75-4.2.09-.24-.03-.58.33-.73v-.42c-.21-.37-.12-.79-.12-1.16v-18.44s-.03-.03-.03-.06l-.03-.03c-.3-.88-.94-1.25-1.83-1.1-.97.18-1.31.91-1.31,1.83,0,3.5-.06,6.97,0,10.44.06,2.22-.82,3.68-3.62,3.62-5.33-.12-10.68-.06-16.04-.03-.79.03-1-.15-1-.97.03-10.29.03-20.6,0-30.89,0-.73.15-.97.91-.97,6.27.03,12.51.03,18.75,0,.79,0,1.03.18,1,1-.03,3.26,0,15.46,0,18.71,0,.91.33,1.64,1.31,1.83.88.15,1.52-.18,1.83-1.1h.03c0-.06.03-.09.03-.12v-30.55c0-.37-.09-.76.12-1.16v-.21ZM81.25,96.68c0,.85-.12,1.16-1.07,1.16-18.5-.03-36.98-.03-55.45-.03-2.37,0-3.29-.91-3.29-3.35v-28.42c-.03-.82.15-1.07,1-1.07,9.62.03,19.23.03,28.85.03s19.17,0,28.76-.03c1,0,1.19.3,1.19,1.25-.03,10.16-.03,20.3,0,30.46ZM104.35,61.71c-2.5-.03-5.02-.03-7.52-.03h-33.6c-13.51,0-27.06,0-40.6.03-.97,0-1.25-.24-1.22-1.25.09-2.04.03-4.08.03-6.12.03-1.74,1.07-2.8,2.8-2.89.27-.03.58,0,.85,0h76.45c.21,0,.43-.03.64,0,1.86.06,2.95,1.07,2.98,2.92.06,2.19,0,4.38.03,6.57.03.7-.3.76-.85.76Z"/>
      <path class="cls-1" d="M108.37,83.08c.06,0,.09.03.15.03-.06.06-.09.06-.12.06s-.06-.03-.06-.12l.03.03Z"/>
      <path class="cls-1" d="M108.37,85.42h-.03c0-.06.03-.12.06-.12s.06.03.12.06c-.06,0-.09.03-.15.06Z"/>
      <path class="cls-1" d="M108.52,53.59v31.77c-.06,0-.09.03-.15.06h-.03c-.03-7.46-.03-23.8-.06-31.25,0-.21,0-.43.24-.58Z"/>
      <path class="cls-1" d="M108.51,83.12v19.61c-.22-.13-.22-.35-.22-.56.01-6.37.03-12.74.04-19.11.02,0,.03.01.05.02.04.02.09.03.13.05Z"/>
      <path class="cls-1" d="M87.61,33.83c-1.19-.06-2.01-.7-2.68-1.55-1.03-1.31-2.34-2.71-2.34-4.23-.03-1.43,1.28-2.83,2.22-4.08.73-.91,1.55-1.64,2.86-1.67.94-.03,1.52-.85,1.46-1.8-.09-.85-.73-1.43-1.67-1.43-2.07-.03-3.62,1-4.9,2.5-.79.88-1.37,1.92-2.1,3.07-2.04-3.23-4.5-5.6-8.49-5.57-3.96,0-6.39,2.4-8.37,5.48-.7-.97-1.31-1.95-2.04-2.83-1.25-1.58-2.8-2.65-4.93-2.65-1,0-1.7.58-1.77,1.49-.03.91.55,1.7,1.52,1.73,1.37.03,2.19.85,2.89,1.8.85,1.1,1.49,2.28,2.1,3.5.18.3.24.55.06.88-.79,1.4-1.49,2.86-2.59,4.08-.61.67-1.28,1.19-2.28,1.25-1.13.06-1.77.82-1.7,1.8.09.97.85,1.52,2.01,1.46,2.04-.09,3.53-1.16,4.72-2.68.7-.88,1.31-1.86,1.98-2.8,4.26,7.18,12.42,7.49,16.89.03.7.97,1.31,1.98,2.04,2.89,1.25,1.52,2.8,2.56,4.87,2.56,1.03,0,1.7-.58,1.77-1.49.06-.91-.52-1.7-1.52-1.73ZM70.36,33.5c-1.37-.43-2.34-1.34-3.07-2.44-2.4-3.56-2.4-2.43-.03-5.99.76-1.1,1.73-2.01,3.1-2.44v10.87ZM76.81,31c-.73,1.13-1.7,2.07-3.13,2.5v-10.87c1.43.43,2.4,1.37,3.17,2.53,2.28,3.47,2.28,2.34-.03,5.84ZM87.61,33.83c-1.19-.06-2.01-.7-2.68-1.55-1.03-1.31-2.34-2.71-2.34-4.23-.03-1.43,1.28-2.83,2.22-4.08.73-.91,1.55-1.64,2.86-1.67.94-.03,1.52-.85,1.46-1.8-.09-.85-.73-1.43-1.67-1.43-2.07-.03-3.62,1-4.9,2.5-.79.88-1.37,1.92-2.1,3.07-2.04-3.23-4.5-5.6-8.49-5.57-3.96,0-6.39,2.4-8.37,5.48-.7-.97-1.31-1.95-2.04-2.83-1.25-1.58-2.8-2.65-4.93-2.65-1,0-1.7.58-1.77,1.49-.03.91.55,1.7,1.52,1.73,1.37.03,2.19.85,2.89,1.8.85,1.1,1.49,2.28,2.1,3.5.18.3.24.55.06.88-.79,1.4-1.49,2.86-2.59,4.08-.61.67-1.28,1.19-2.28,1.25-1.13.06-1.77.82-1.7,1.8.09.97.85,1.52,2.01,1.46,2.04-.09,3.53-1.16,4.72-2.68.7-.88,1.31-1.86,1.98-2.8,4.26,7.18,12.42,7.49,16.89.03.7.97,1.31,1.98,2.04,2.89,1.25,1.52,2.8,2.56,4.87,2.56,1.03,0,1.7-.58,1.77-1.49.06-.91-.52-1.7-1.52-1.73ZM70.36,33.5c-1.37-.43-2.34-1.34-3.07-2.44-2.4-3.56-2.4-2.43-.03-5.99.76-1.1,1.73-2.01,3.1-2.44v10.87ZM76.81,31c-.73,1.13-1.7,2.07-3.13,2.5v-10.87c1.43.43,2.4,1.37,3.17,2.53,2.28,3.47,2.28,2.34-.03,5.84ZM87.61,33.83c-1.19-.06-2.01-.7-2.68-1.55-1.03-1.31-2.34-2.71-2.34-4.23-.03-1.43,1.28-2.83,2.22-4.08.73-.91,1.55-1.64,2.86-1.67.94-.03,1.52-.85,1.46-1.8-.09-.85-.73-1.43-1.67-1.43-2.07-.03-3.62,1-4.9,2.5-.79.88-1.37,1.92-2.1,3.07-2.04-3.23-4.5-5.6-8.49-5.57-3.96,0-6.39,2.4-8.37,5.48-.7-.97-1.31-1.95-2.04-2.83-1.25-1.58-2.8-2.65-4.93-2.65-1,0-1.7.58-1.77,1.49-.03.91.55,1.7,1.52,1.73,1.37.03,2.19.85,2.89,1.8.85,1.1,1.49,2.28,2.1,3.5.18.3.24.55.06.88-.79,1.4-1.49,2.86-2.59,4.08-.61.67-1.28,1.19-2.28,1.25-1.13.06-1.77.82-1.7,1.8.09.97.85,1.52,2.01,1.46,2.04-.09,3.53-1.16,4.72-2.68.7-.88,1.31-1.86,1.98-2.8,4.26,7.18,12.42,7.49,16.89.03.7.97,1.31,1.98,2.04,2.89,1.25,1.52,2.8,2.56,4.87,2.56,1.03,0,1.7-.58,1.77-1.49.06-.91-.52-1.7-1.52-1.73ZM70.36,33.5c-1.37-.43-2.34-1.34-3.07-2.44-2.4-3.56-2.4-2.43-.03-5.99.76-1.1,1.73-2.01,3.1-2.44v10.87ZM76.81,31c-.73,1.13-1.7,2.07-3.13,2.5v-10.87c1.43.43,2.4,1.37,3.17,2.53,2.28,3.47,2.28,2.34-.03,5.84ZM87.61,33.83c-1.19-.06-2.01-.7-2.68-1.55-1.03-1.31-2.34-2.71-2.34-4.23-.03-1.43,1.28-2.83,2.22-4.08.73-.91,1.55-1.64,2.86-1.67.94-.03,1.52-.85,1.46-1.8-.09-.85-.73-1.43-1.67-1.43-2.07-.03-3.62,1-4.9,2.5-.79.88-1.37,1.92-2.1,3.07-2.04-3.23-4.5-5.6-8.49-5.57-3.96,0-6.39,2.4-8.37,5.48-.7-.97-1.31-1.95-2.04-2.83-1.25-1.58-2.8-2.65-4.93-2.65-1,0-1.7.58-1.77,1.49-.03.91.55,1.7,1.52,1.73,1.37.03,2.19.85,2.89,1.8.85,1.1,1.49,2.28,2.1,3.5.18.3.24.55.06.88-.79,1.4-1.49,2.86-2.59,4.08-.61.67-1.28,1.19-2.28,1.25-1.13.06-1.77.82-1.7,1.8.09.97.85,1.52,2.01,1.46,2.04-.09,3.53-1.16,4.72-2.68.7-.88,1.31-1.86,1.98-2.8,4.26,7.18,12.42,7.49,16.89.03.7.97,1.31,1.98,2.04,2.89,1.25,1.52,2.8,2.56,4.87,2.56,1.03,0,1.7-.58,1.77-1.49.06-.91-.52-1.7-1.52-1.73ZM70.36,33.5c-1.37-.43-2.34-1.34-3.07-2.44-2.4-3.56-2.4-2.43-.03-5.99.76-1.1,1.73-2.01,3.1-2.44v10.87ZM76.81,31c-.73,1.13-1.7,2.07-3.13,2.5v-10.87c1.43.43,2.4,1.37,3.17,2.53,2.28,3.47,2.28,2.34-.03,5.84ZM87.61,33.83c-1.19-.06-2.01-.7-2.68-1.55-1.03-1.31-2.34-2.71-2.34-4.23-.03-1.43,1.28-2.83,2.22-4.08.73-.91,1.55-1.64,2.86-1.67.94-.03,1.52-.85,1.46-1.8-.09-.85-.73-1.43-1.67-1.43-2.07-.03-3.62,1-4.9,2.5-.79.88-1.37,1.92-2.1,3.07-2.04-3.23-4.5-5.6-8.49-5.57-3.96,0-6.39,2.4-8.37,5.48-.7-.97-1.31-1.95-2.04-2.83-1.25-1.58-2.8-2.65-4.93-2.65-1,0-1.7.58-1.77,1.49-.03.91.55,1.7,1.52,1.73,1.37.03,2.19.85,2.89,1.8.85,1.1,1.49,2.28,2.1,3.5.18.3.24.55.06.88-.79,1.4-1.49,2.86-2.59,4.08-.61.67-1.28,1.19-2.28,1.25-1.13.06-1.77.82-1.7,1.8.09.97.85,1.52,2.01,1.46,2.04-.09,3.53-1.16,4.72-2.68.7-.88,1.31-1.86,1.98-2.8,4.26,7.18,12.42,7.49,16.89.03.7.97,1.31,1.98,2.04,2.89,1.25,1.52,2.8,2.56,4.87,2.56,1.03,0,1.7-.58,1.77-1.49.06-.91-.52-1.7-1.52-1.73ZM70.36,33.5c-1.37-.43-2.34-1.34-3.07-2.44-2.4-3.56-2.4-2.43-.03-5.99.76-1.1,1.73-2.01,3.1-2.44v10.87ZM76.81,31c-.73,1.13-1.7,2.07-3.13,2.5v-10.87c1.43.43,2.4,1.37,3.17,2.53,2.28,3.47,2.28,2.34-.03,5.84ZM87.61,33.83c-1.19-.06-2.01-.7-2.68-1.55-1.03-1.31-2.34-2.71-2.34-4.23-.03-1.43,1.28-2.83,2.22-4.08.73-.91,1.55-1.64,2.86-1.67.94-.03,1.52-.85,1.46-1.8-.09-.85-.73-1.43-1.67-1.43-2.07-.03-3.62,1-4.9,2.5-.79.88-1.37,1.92-2.1,3.07-2.04-3.23-4.5-5.6-8.49-5.57-3.96,0-6.39,2.4-8.37,5.48-.7-.97-1.31-1.95-2.04-2.83-1.25-1.58-2.8-2.65-4.93-2.65-1,0-1.7.58-1.77,1.49-.03.91.55,1.7,1.52,1.73,1.37.03,2.19.85,2.89,1.8.85,1.1,1.49,2.28,2.1,3.5.18.3.24.55.06.88-.79,1.4-1.49,2.86-2.59,4.08-.61.67-1.28,1.19-2.28,1.25-1.13.06-1.77.82-1.7,1.8.09.97.85,1.52,2.01,1.46,2.04-.09,3.53-1.16,4.72-2.68.7-.88,1.31-1.86,1.98-2.8,4.26,7.18,12.42,7.49,16.89.03.7.97,1.31,1.98,2.04,2.89,1.25,1.52,2.8,2.56,4.87,2.56,1.03,0,1.7-.58,1.77-1.49.06-.91-.52-1.7-1.52-1.73ZM70.36,33.5c-1.37-.43-2.34-1.34-3.07-2.44-2.4-3.56-2.4-2.43-.03-5.99.76-1.1,1.73-2.01,3.1-2.44v10.87ZM76.81,31c-.73,1.13-1.7,2.07-3.13,2.5v-10.87c1.43.43,2.4,1.37,3.17,2.53,2.28,3.47,2.28,2.34-.03,5.84ZM87.61,33.83c-1.19-.06-2.01-.7-2.68-1.55-1.03-1.31-2.34-2.71-2.34-4.23-.03-1.43,1.28-2.83,2.22-4.08.73-.91,1.55-1.64,2.86-1.67.94-.03,1.52-.85,1.46-1.8-.09-.85-.73-1.43-1.67-1.43-2.07-.03-3.62,1-4.9,2.5-.79.88-1.37,1.92-2.1,3.07-2.04-3.23-4.5-5.6-8.49-5.57-3.96,0-6.39,2.4-8.37,5.48-.7-.97-1.31-1.95-2.04-2.83-1.25-1.58-2.8-2.65-4.93-2.65-1,0-1.7.58-1.77,1.49-.03.91.55,1.7,1.52,1.73,1.37.03,2.19.85,2.89,1.8.85,1.1,1.49,2.28,2.1,3.5.18.3.24.55.06.88-.79,1.4-1.49,2.86-2.59,4.08-.61.67-1.28,1.19-2.28,1.25-1.13.06-1.77.82-1.7,1.8.09.97.85,1.52,2.01,1.46,2.04-.09,3.53-1.16,4.72-2.68.7-.88,1.31-1.86,1.98-2.8,4.26,7.18,12.42,7.49,16.89.03.7.97,1.31,1.98,2.04,2.89,1.25,1.52,2.8,2.56,4.87,2.56,1.03,0,1.7-.58,1.77-1.49.06-.91-.52-1.7-1.52-1.73ZM70.36,33.5c-1.37-.43-2.34-1.34-3.07-2.44-2.4-3.56-2.4-2.43-.03-5.99.76-1.1,1.73-2.01,3.1-2.44v10.87ZM76.81,31c-.73,1.13-1.7,2.07-3.13,2.5v-10.87c1.43.43,2.4,1.37,3.17,2.53,2.28,3.47,2.28,2.34-.03,5.84ZM87.61,33.83c-1.19-.06-2.01-.7-2.68-1.55-1.03-1.31-2.34-2.71-2.34-4.23-.03-1.43,1.28-2.83,2.22-4.08.73-.91,1.55-1.64,2.86-1.67.94-.03,1.52-.85,1.46-1.8-.09-.85-.73-1.43-1.67-1.43-2.07-.03-3.62,1-4.9,2.5-.79.88-1.37,1.92-2.1,3.07-2.04-3.23-4.5-5.6-8.49-5.57-3.96,0-6.39,2.4-8.37,5.48-.7-.97-1.31-1.95-2.04-2.83-1.25-1.58-2.8-2.65-4.93-2.65-1,0-1.7.58-1.77,1.49-.03.91.55,1.7,1.52,1.73,1.37.03,2.19.85,2.89,1.8.85,1.1,1.49,2.28,2.1,3.5.18.3.24.55.06.88-.79,1.4-1.49,2.86-2.59,4.08-.61.67-1.28,1.19-2.28,1.25-1.13.06-1.77.82-1.7,1.8.09.97.85,1.52,2.01,1.46,2.04-.09,3.53-1.16,4.72-2.68.7-.88,1.31-1.86,1.98-2.8,4.26,7.18,12.42,7.49,16.89.03.7.97,1.31,1.98,2.04,2.89,1.25,1.52,2.8,2.56,4.87,2.56,1.03,0,1.7-.58,1.77-1.49.06-.91-.52-1.7-1.52-1.73ZM70.36,33.5c-1.37-.43-2.34-1.34-3.07-2.44-2.4-3.56-2.4-2.43-.03-5.99.76-1.1,1.73-2.01,3.1-2.44v10.87ZM76.81,31c-.73,1.13-1.7,2.07-3.13,2.5v-10.87c1.43.43,2.4,1.37,3.17,2.53,2.28,3.47,2.28,2.34-.03,5.84ZM87.61,33.83c-1.19-.06-2.01-.7-2.68-1.55-1.03-1.31-2.34-2.71-2.34-4.23-.03-1.43,1.28-2.83,2.22-4.08.73-.91,1.55-1.64,2.86-1.67.94-.03,1.52-.85,1.46-1.8-.09-.85-.73-1.43-1.67-1.43-2.07-.03-3.62,1-4.9,2.5-.79.88-1.37,1.92-2.1,3.07-2.04-3.23-4.5-5.6-8.49-5.57-3.96,0-6.39,2.4-8.37,5.48-.7-.97-1.31-1.95-2.04-2.83-1.25-1.58-2.8-2.65-4.93-2.65-1,0-1.7.58-1.77,1.49-.03.91.55,1.7,1.52,1.73,1.37.03,2.19.85,2.89,1.8.85,1.1,1.49,2.28,2.1,3.5.18.3.24.55.06.88-.79,1.4-1.49,2.86-2.59,4.08-.61.67-1.28,1.19-2.28,1.25-1.13.06-1.77.82-1.7,1.8.09.97.85,1.52,2.01,1.46,2.04-.09,3.53-1.16,4.72-2.68.7-.88,1.31-1.86,1.98-2.8,4.26,7.18,12.42,7.49,16.89.03.7.97,1.31,1.98,2.04,2.89,1.25,1.52,2.8,2.56,4.87,2.56,1.03,0,1.7-.58,1.77-1.49.06-.91-.52-1.7-1.52-1.73ZM70.36,33.5c-1.37-.43-2.34-1.34-3.07-2.44-2.4-3.56-2.4-2.43-.03-5.99.76-1.1,1.73-2.01,3.1-2.44v10.87ZM76.81,31c-.73,1.13-1.7,2.07-3.13,2.5v-10.87c1.43.43,2.4,1.37,3.17,2.53,2.28,3.47,2.28,2.34-.03,5.84ZM87.61,33.83c-1.19-.06-2.01-.7-2.68-1.55-1.03-1.31-2.34-2.71-2.34-4.23-.03-1.43,1.28-2.83,2.22-4.08.73-.91,1.55-1.64,2.86-1.67.94-.03,1.52-.85,1.46-1.8-.09-.85-.73-1.43-1.67-1.43-2.07-.03-3.62,1-4.9,2.5-.79.88-1.37,1.92-2.1,3.07-2.04-3.23-4.5-5.6-8.49-5.57-3.96,0-6.39,2.4-8.37,5.48-.7-.97-1.31-1.95-2.04-2.83-1.25-1.58-2.8-2.65-4.93-2.65-1,0-1.7.58-1.77,1.49-.03.91.55,1.7,1.52,1.73,1.37.03,2.19.85,2.89,1.8.85,1.1,1.49,2.28,2.1,3.5.18.3.24.55.06.88-.79,1.4-1.49,2.86-2.59,4.08-.61.67-1.28,1.19-2.28,1.25-1.13.06-1.77.82-1.7,1.8.09.97.85,1.52,2.01,1.46,2.04-.09,3.53-1.16,4.72-2.68.7-.88,1.31-1.86,1.98-2.8,4.26,7.18,12.42,7.49,16.89.03.7.97,1.31,1.98,2.04,2.89,1.25,1.52,2.8,2.56,4.87,2.56,1.03,0,1.7-.58,1.77-1.49.06-.91-.52-1.7-1.52-1.73ZM70.36,33.5c-1.37-.43-2.34-1.34-3.07-2.44-2.4-3.56-2.4-2.43-.03-5.99.76-1.1,1.73-2.01,3.1-2.44v10.87ZM76.81,31c-.73,1.13-1.7,2.07-3.13,2.5v-10.87c1.43.43,2.4,1.37,3.17,2.53,2.28,3.47,2.28,2.34-.03,5.84ZM90.63,11.59h-18.63c-6.24,0-12.51,0-18.75.03-2.65,0-4.2,1.55-4.2,4.2v24.47c0,2.71,1.55,4.23,4.29,4.23,12.45.03,24.89.03,37.37,0,2.71,0,4.23-1.52,4.23-4.26V15.91c0-2.8-1.49-4.29-4.32-4.32ZM91.72,39.86c0,1.34-.06,1.37-1.43,1.37-12.2.03-24.41.03-36.61,0-1.31,0-1.37-.06-1.37-1.37v-23.49q0-1.46,1.4-1.46h18.32c6.09,0,12.2.03,18.29-.03,1.1,0,1.43.3,1.4,1.4-.03,7.88,0,15.73,0,23.59ZM87.68,22.3c.94-.03,1.52-.85,1.46-1.8-.09-.85-.73-1.43-1.67-1.43-2.07-.03-3.62,1-4.9,2.5-.79.88-1.37,1.92-2.1,3.07-2.04-3.23-4.5-5.6-8.49-5.57-3.96,0-6.39,2.4-8.37,5.48-.7-.97-1.31-1.95-2.04-2.83-1.25-1.58-2.8-2.65-4.93-2.65-1,0-1.7.58-1.77,1.49-.03.91.55,1.7,1.52,1.73,1.37.03,2.19.85,2.89,1.8.85,1.1,1.49,2.28,2.1,3.5.18.3.24.55.06.88-.79,1.4-1.49,2.86-2.59,4.08-.61.67-1.28,1.19-2.28,1.25-1.13.06-1.77.82-1.7,1.8.09.97.85,1.52,2.01,1.46,2.04-.09,3.53-1.16,4.72-2.68.7-.88,1.31-1.86,1.98-2.8,4.26,7.18,12.42,7.49,16.89.03.7.97,1.31,1.98,2.04,2.89,1.25,1.52,2.8,2.56,4.87,2.56,1.03,0,1.7-.58,1.77-1.49.06-.91-.52-1.7-1.52-1.73-1.19-.06-2.01-.7-2.68-1.55-1.03-1.31-2.34-2.71-2.34-4.23-.03-1.43,1.28-2.83,2.22-4.08.73-.91,1.55-1.64,2.86-1.67ZM70.36,33.5c-1.37-.43-2.34-1.34-3.07-2.44-2.4-3.56-2.4-2.43-.03-5.99.76-1.1,1.73-2.01,3.1-2.44v10.87ZM76.81,31c-.73,1.13-1.7,2.07-3.13,2.5v-10.87c1.43.43,2.4,1.37,3.17,2.53,2.28,3.47,2.28,2.34-.03,5.84ZM87.61,33.83c-1.19-.06-2.01-.7-2.68-1.55-1.03-1.31-2.34-2.71-2.34-4.23-.03-1.43,1.28-2.83,2.22-4.08.73-.91,1.55-1.64,2.86-1.67.94-.03,1.52-.85,1.46-1.8-.09-.85-.73-1.43-1.67-1.43-2.07-.03-3.62,1-4.9,2.5-.79.88-1.37,1.92-2.1,3.07-2.04-3.23-4.5-5.6-8.49-5.57-3.96,0-6.39,2.4-8.37,5.48-.7-.97-1.31-1.95-2.04-2.83-1.25-1.58-2.8-2.65-4.93-2.65-1,0-1.7.58-1.77,1.49-.03.91.55,1.7,1.52,1.73,1.37.03,2.19.85,2.89,1.8.85,1.1,1.49,2.28,2.1,3.5.18.3.24.55.06.88-.79,1.4-1.49,2.86-2.59,4.08-.61.67-1.28,1.19-2.28,1.25-1.13.06-1.77.82-1.7,1.8.09.97.85,1.52,2.01,1.46,2.04-.09,3.53-1.16,4.72-2.68.7-.88,1.31-1.86,1.98-2.8,4.26,7.18,12.42,7.49,16.89.03.7.97,1.31,1.98,2.04,2.89,1.25,1.52,2.8,2.56,4.87,2.56,1.03,0,1.7-.58,1.77-1.49.06-.91-.52-1.7-1.52-1.73ZM70.36,33.5c-1.37-.43-2.34-1.34-3.07-2.44-2.4-3.56-2.4-2.43-.03-5.99.76-1.1,1.73-2.01,3.1-2.44v10.87ZM76.81,31c-.73,1.13-1.7,2.07-3.13,2.5v-10.87c1.43.43,2.4,1.37,3.17,2.53,2.28,3.47,2.28,2.34-.03,5.84ZM87.61,33.83c-1.19-.06-2.01-.7-2.68-1.55-1.03-1.31-2.34-2.71-2.34-4.23-.03-1.43,1.28-2.83,2.22-4.08.73-.91,1.55-1.64,2.86-1.67.94-.03,1.52-.85,1.46-1.8-.09-.85-.73-1.43-1.67-1.43-2.07-.03-3.62,1-4.9,2.5-.79.88-1.37,1.92-2.1,3.07-2.04-3.23-4.5-5.6-8.49-5.57-3.96,0-6.39,2.4-8.37,5.48-.7-.97-1.31-1.95-2.04-2.83-1.25-1.58-2.8-2.65-4.93-2.65-1,0-1.7.58-1.77,1.49-.03.91.55,1.7,1.52,1.73,1.37.03,2.19.85,2.89,1.8.85,1.1,1.49,2.28,2.1,3.5.18.3.24.55.06.88-.79,1.4-1.49,2.86-2.59,4.08-.61.67-1.28,1.19-2.28,1.25-1.13.06-1.77.82-1.7,1.8.09.97.85,1.52,2.01,1.46,2.04-.09,3.53-1.16,4.72-2.68.7-.88,1.31-1.86,1.98-2.8,4.26,7.18,12.42,7.49,16.89.03.7.97,1.31,1.98,2.04,2.89,1.25,1.52,2.8,2.56,4.87,2.56,1.03,0,1.7-.58,1.77-1.49.06-.91-.52-1.7-1.52-1.73ZM70.36,33.5c-1.37-.43-2.34-1.34-3.07-2.44-2.4-3.56-2.4-2.43-.03-5.99.76-1.1,1.73-2.01,3.1-2.44v10.87ZM76.81,31c-.73,1.13-1.7,2.07-3.13,2.5v-10.87c1.43.43,2.4,1.37,3.17,2.53,2.28,3.47,2.28,2.34-.03,5.84ZM87.61,33.83c-1.19-.06-2.01-.7-2.68-1.55-1.03-1.31-2.34-2.71-2.34-4.23-.03-1.43,1.28-2.83,2.22-4.08.73-.91,1.55-1.64,2.86-1.67.94-.03,1.52-.85,1.46-1.8-.09-.85-.73-1.43-1.67-1.43-2.07-.03-3.62,1-4.9,2.5-.79.88-1.37,1.92-2.1,3.07-2.04-3.23-4.5-5.6-8.49-5.57-3.96,0-6.39,2.4-8.37,5.48-.7-.97-1.31-1.95-2.04-2.83-1.25-1.58-2.8-2.65-4.93-2.65-1,0-1.7.58-1.77,1.49-.03.91.55,1.7,1.52,1.73,1.37.03,2.19.85,2.89,1.8.85,1.1,1.49,2.28,2.1,3.5.18.3.24.55.06.88-.79,1.4-1.49,2.86-2.59,4.08-.61.67-1.28,1.19-2.28,1.25-1.13.06-1.77.82-1.7,1.8.09.97.85,1.52,2.01,1.46,2.04-.09,3.53-1.16,4.72-2.68.7-.88,1.31-1.86,1.98-2.8,4.26,7.18,12.42,7.49,16.89.03.7.97,1.31,1.98,2.04,2.89,1.25,1.52,2.8,2.56,4.87,2.56,1.03,0,1.7-.58,1.77-1.49.06-.91-.52-1.7-1.52-1.73ZM70.36,33.5c-1.37-.43-2.34-1.34-3.07-2.44-2.4-3.56-2.4-2.43-.03-5.99.76-1.1,1.73-2.01,3.1-2.44v10.87ZM76.81,31c-.73,1.13-1.7,2.07-3.13,2.5v-10.87c1.43.43,2.4,1.37,3.17,2.53,2.28,3.47,2.28,2.34-.03,5.84ZM87.61,33.83c-1.19-.06-2.01-.7-2.68-1.55-1.03-1.31-2.34-2.71-2.34-4.23-.03-1.43,1.28-2.83,2.22-4.08.73-.91,1.55-1.64,2.86-1.67.94-.03,1.52-.85,1.46-1.8-.09-.85-.73-1.43-1.67-1.43-2.07-.03-3.62,1-4.9,2.5-.79.88-1.37,1.92-2.1,3.07-2.04-3.23-4.5-5.6-8.49-5.57-3.96,0-6.39,2.4-8.37,5.48-.7-.97-1.31-1.95-2.04-2.83-1.25-1.58-2.8-2.65-4.93-2.65-1,0-1.7.58-1.77,1.49-.03.91.55,1.7,1.52,1.73,1.37.03,2.19.85,2.89,1.8.85,1.1,1.49,2.28,2.1,3.5.18.3.24.55.06.88-.79,1.4-1.49,2.86-2.59,4.08-.61.67-1.28,1.19-2.28,1.25-1.13.06-1.77.82-1.7,1.8.09.97.85,1.52,2.01,1.46,2.04-.09,3.53-1.16,4.72-2.68.7-.88,1.31-1.86,1.98-2.8,4.26,7.18,12.42,7.49,16.89.03.7.97,1.31,1.98,2.04,2.89,1.25,1.52,2.8,2.56,4.87,2.56,1.03,0,1.7-.58,1.77-1.49.06-.91-.52-1.7-1.52-1.73ZM70.36,33.5c-1.37-.43-2.34-1.34-3.07-2.44-2.4-3.56-2.4-2.43-.03-5.99.76-1.1,1.73-2.01,3.1-2.44v10.87ZM76.81,31c-.73,1.13-1.7,2.07-3.13,2.5v-10.87c1.43.43,2.4,1.37,3.17,2.53,2.28,3.47,2.28,2.34-.03,5.84ZM87.61,33.83c-1.19-.06-2.01-.7-2.68-1.55-1.03-1.31-2.34-2.71-2.34-4.23-.03-1.43,1.28-2.83,2.22-4.08.73-.91,1.55-1.64,2.86-1.67.94-.03,1.52-.85,1.46-1.8-.09-.85-.73-1.43-1.67-1.43-2.07-.03-3.62,1-4.9,2.5-.79.88-1.37,1.92-2.1,3.07-2.04-3.23-4.5-5.6-8.49-5.57-3.96,0-6.39,2.4-8.37,5.48-.7-.97-1.31-1.95-2.04-2.83-1.25-1.58-2.8-2.65-4.93-2.65-1,0-1.7.58-1.77,1.49-.03.91.55,1.7,1.52,1.73,1.37.03,2.19.85,2.89,1.8.85,1.1,1.49,2.28,2.1,3.5.18.3.24.55.06.88-.79,1.4-1.49,2.86-2.59,4.08-.61.67-1.28,1.19-2.28,1.25-1.13.06-1.77.82-1.7,1.8.09.97.85,1.52,2.01,1.46,2.04-.09,3.53-1.16,4.72-2.68.7-.88,1.31-1.86,1.98-2.8,4.26,7.18,12.42,7.49,16.89.03.7.97,1.31,1.98,2.04,2.89,1.25,1.52,2.8,2.56,4.87,2.56,1.03,0,1.7-.58,1.77-1.49.06-.91-.52-1.7-1.52-1.73ZM70.36,33.5c-1.37-.43-2.34-1.34-3.07-2.44-2.4-3.56-2.4-2.43-.03-5.99.76-1.1,1.73-2.01,3.1-2.44v10.87ZM76.81,31c-.73,1.13-1.7,2.07-3.13,2.5v-10.87c1.43.43,2.4,1.37,3.17,2.53,2.28,3.47,2.28,2.34-.03,5.84ZM87.61,33.83c-1.19-.06-2.01-.7-2.68-1.55-1.03-1.31-2.34-2.71-2.34-4.23-.03-1.43,1.28-2.83,2.22-4.08.73-.91,1.55-1.64,2.86-1.67.94-.03,1.52-.85,1.46-1.8-.09-.85-.73-1.43-1.67-1.43-2.07-.03-3.62,1-4.9,2.5-.79.88-1.37,1.92-2.1,3.07-2.04-3.23-4.5-5.6-8.49-5.57-3.96,0-6.39,2.4-8.37,5.48-.7-.97-1.31-1.95-2.04-2.83-1.25-1.58-2.8-2.65-4.93-2.65-1,0-1.7.58-1.77,1.49-.03.91.55,1.7,1.52,1.73,1.37.03,2.19.85,2.89,1.8.85,1.1,1.49,2.28,2.1,3.5.18.3.24.55.06.88-.79,1.4-1.49,2.86-2.59,4.08-.61.67-1.28,1.19-2.28,1.25-1.13.06-1.77.82-1.7,1.8.09.97.85,1.52,2.01,1.46,2.04-.09,3.53-1.16,4.72-2.68.7-.88,1.31-1.86,1.98-2.8,4.26,7.18,12.42,7.49,16.89.03.7.97,1.31,1.98,2.04,2.89,1.25,1.52,2.8,2.56,4.87,2.56,1.03,0,1.7-.58,1.77-1.49.06-.91-.52-1.7-1.52-1.73ZM70.36,33.5c-1.37-.43-2.34-1.34-3.07-2.44-2.4-3.56-2.4-2.43-.03-5.99.76-1.1,1.73-2.01,3.1-2.44v10.87ZM76.81,31c-.73,1.13-1.7,2.07-3.13,2.5v-10.87c1.43.43,2.4,1.37,3.17,2.53,2.28,3.47,2.28,2.34-.03,5.84ZM87.61,33.83c-1.19-.06-2.01-.7-2.68-1.55-1.03-1.31-2.34-2.71-2.34-4.23-.03-1.43,1.28-2.83,2.22-4.08.73-.91,1.55-1.64,2.86-1.67.94-.03,1.52-.85,1.46-1.8-.09-.85-.73-1.43-1.67-1.43-2.07-.03-3.62,1-4.9,2.5-.79.88-1.37,1.92-2.1,3.07-2.04-3.23-4.5-5.6-8.49-5.57-3.96,0-6.39,2.4-8.37,5.48-.7-.97-1.31-1.95-2.04-2.83-1.25-1.58-2.8-2.65-4.93-2.65-1,0-1.7.58-1.77,1.49-.03.91.55,1.7,1.52,1.73,1.37.03,2.19.85,2.89,1.8.85,1.1,1.49,2.28,2.1,3.5.18.3.24.55.06.88-.79,1.4-1.49,2.86-2.59,4.08-.61.67-1.28,1.19-2.28,1.25-1.13.06-1.77.82-1.7,1.8.09.97.85,1.52,2.01,1.46,2.04-.09,3.53-1.16,4.72-2.68.7-.88,1.31-1.86,1.98-2.8,4.26,7.18,12.42,7.49,16.89.03.7.97,1.31,1.98,2.04,2.89,1.25,1.52,2.8,2.56,4.87,2.56,1.03,0,1.7-.58,1.77-1.49.06-.91-.52-1.7-1.52-1.73ZM70.36,33.5c-1.37-.43-2.34-1.34-3.07-2.44-2.4-3.56-2.4-2.43-.03-5.99.76-1.1,1.73-2.01,3.1-2.44v10.87ZM76.81,31c-.73,1.13-1.7,2.07-3.13,2.5v-10.87c1.43.43,2.4,1.37,3.17,2.53,2.28,3.47,2.28,2.34-.03,5.84ZM87.61,33.83c-1.19-.06-2.01-.7-2.68-1.55-1.03-1.31-2.34-2.71-2.34-4.23-.03-1.43,1.28-2.83,2.22-4.08.73-.91,1.55-1.64,2.86-1.67.94-.03,1.52-.85,1.46-1.8-.09-.85-.73-1.43-1.67-1.43-2.07-.03-3.62,1-4.9,2.5-.79.88-1.37,1.92-2.1,3.07-2.04-3.23-4.5-5.6-8.49-5.57-3.96,0-6.39,2.4-8.37,5.48-.7-.97-1.31-1.95-2.04-2.83-1.25-1.58-2.8-2.65-4.93-2.65-1,0-1.7.58-1.77,1.49-.03.91.55,1.7,1.52,1.73,1.37.03,2.19.85,2.89,1.8.85,1.1,1.49,2.28,2.1,3.5.18.3.24.55.06.88-.79,1.4-1.49,2.86-2.59,4.08-.61.67-1.28,1.19-2.28,1.25-1.13.06-1.77.82-1.7,1.8.09.97.85,1.52,2.01,1.46,2.04-.09,3.53-1.16,4.72-2.68.7-.88,1.31-1.86,1.98-2.8,4.26,7.18,12.42,7.49,16.89.03.7.97,1.31,1.98,2.04,2.89,1.25,1.52,2.8,2.56,4.87,2.56,1.03,0,1.7-.58,1.77-1.49.06-.91-.52-1.7-1.52-1.73ZM70.36,33.5c-1.37-.43-2.34-1.34-3.07-2.44-2.4-3.56-2.4-2.43-.03-5.99.76-1.1,1.73-2.01,3.1-2.44v10.87ZM76.81,31c-.73,1.13-1.7,2.07-3.13,2.5v-10.87c1.43.43,2.4,1.37,3.17,2.53,2.28,3.47,2.28,2.34-.03,5.84ZM87.61,33.83c-1.19-.06-2.01-.7-2.68-1.55-1.03-1.31-2.34-2.71-2.34-4.23-.03-1.43,1.28-2.83,2.22-4.08.73-.91,1.55-1.64,2.86-1.67.94-.03,1.52-.85,1.46-1.8-.09-.85-.73-1.43-1.67-1.43-2.07-.03-3.62,1-4.9,2.5-.79.88-1.37,1.92-2.1,3.07-2.04-3.23-4.5-5.6-8.49-5.57-3.96,0-6.39,2.4-8.37,5.48-.7-.97-1.31-1.95-2.04-2.83-1.25-1.58-2.8-2.65-4.93-2.65-1,0-1.7.58-1.77,1.49-.03.91.55,1.7,1.52,1.73,1.37.03,2.19.85,2.89,1.8.85,1.1,1.49,2.28,2.1,3.5.18.3.24.55.06.88-.79,1.4-1.49,2.86-2.59,4.08-.61.67-1.28,1.19-2.28,1.25-1.13.06-1.77.82-1.7,1.8.09.97.85,1.52,2.01,1.46,2.04-.09,3.53-1.16,4.72-2.68.7-.88,1.31-1.86,1.98-2.8,4.26,7.18,12.42,7.49,16.89.03.7.97,1.31,1.98,2.04,2.89,1.25,1.52,2.8,2.56,4.87,2.56,1.03,0,1.7-.58,1.77-1.49.06-.91-.52-1.7-1.52-1.73ZM70.36,33.5c-1.37-.43-2.34-1.34-3.07-2.44-2.4-3.56-2.4-2.43-.03-5.99.76-1.1,1.73-2.01,3.1-2.44v10.87ZM76.81,31c-.73,1.13-1.7,2.07-3.13,2.5v-10.87c1.43.43,2.4,1.37,3.17,2.53,2.28,3.47,2.28,2.34-.03,5.84ZM87.61,33.83c-1.19-.06-2.01-.7-2.68-1.55-1.03-1.31-2.34-2.71-2.34-4.23-.03-1.43,1.28-2.83,2.22-4.08.73-.91,1.55-1.64,2.86-1.67.94-.03,1.52-.85,1.46-1.8-.09-.85-.73-1.43-1.67-1.43-2.07-.03-3.62,1-4.9,2.5-.79.88-1.37,1.92-2.1,3.07-2.04-3.23-4.5-5.6-8.49-5.57-3.96,0-6.39,2.4-8.37,5.48-.7-.97-1.31-1.95-2.04-2.83-1.25-1.58-2.8-2.65-4.93-2.65-1,0-1.7.58-1.77,1.49-.03.91.55,1.7,1.52,1.73,1.37.03,2.19.85,2.89,1.8.85,1.1,1.49,2.28,2.1,3.5.18.3.24.55.06.88-.79,1.4-1.49,2.86-2.59,4.08-.61.67-1.28,1.19-2.28,1.25-1.13.06-1.77.82-1.7,1.8.09.97.85,1.52,2.01,1.46,2.04-.09,3.53-1.16,4.72-2.68.7-.88,1.31-1.86,1.98-2.8,4.26,7.18,12.42,7.49,16.89.03.7.97,1.31,1.98,2.04,2.89,1.25,1.52,2.8,2.56,4.87,2.56,1.03,0,1.7-.58,1.77-1.49.06-.91-.52-1.7-1.52-1.73ZM70.36,33.5c-1.37-.43-2.34-1.34-3.07-2.44-2.4-3.56-2.4-2.43-.03-5.99.76-1.1,1.73-2.01,3.1-2.44v10.87ZM76.81,31c-.73,1.13-1.7,2.07-3.13,2.5v-10.87c1.43.43,2.4,1.37,3.17,2.53,2.28,3.47,2.28,2.34-.03,5.84Z"/>
      <path class="cls-1" d="M31.16,56.63c-.03.88-.8,1.6-1.69,1.57-.92-.03-1.58-.74-1.56-1.68.02-.89.79-1.63,1.66-1.6.86.03,1.61.84,1.59,1.7Z"/>
      <path class="cls-1" d="M87.61,33.83c-1.19-.06-2.01-.7-2.68-1.55-1.03-1.31-2.34-2.71-2.34-4.23-.03-1.43,1.28-2.83,2.22-4.08.73-.91,1.55-1.64,2.86-1.67.94-.03,1.52-.85,1.46-1.8-.09-.85-.73-1.43-1.67-1.43-2.07-.03-3.62,1-4.9,2.5-.79.88-1.37,1.92-2.1,3.07-2.04-3.23-4.5-5.6-8.49-5.57-3.96,0-6.39,2.4-8.37,5.48-.7-.97-1.31-1.95-2.04-2.83-1.25-1.58-2.8-2.65-4.93-2.65-1,0-1.7.58-1.77,1.49-.03.91.55,1.7,1.52,1.73,1.37.03,2.19.85,2.89,1.8.85,1.1,1.49,2.28,2.1,3.5.18.3.24.55.06.88-.79,1.4-1.49,2.86-2.59,4.08-.61.67-1.28,1.19-2.28,1.25-1.13.06-1.77.82-1.7,1.8.09.97.85,1.52,2.01,1.46,2.04-.09,3.53-1.16,4.72-2.68.7-.88,1.31-1.86,1.98-2.8,4.26,7.18,12.42,7.49,16.89.03.7.97,1.31,1.98,2.04,2.89,1.25,1.52,2.8,2.56,4.87,2.56,1.03,0,1.7-.58,1.77-1.49.06-.91-.52-1.7-1.52-1.73ZM70.36,33.5c-1.37-.43-2.34-1.34-3.07-2.44-2.4-3.56-2.4-2.43-.03-5.99.76-1.1,1.73-2.01,3.1-2.44v10.87ZM76.81,31c-.73,1.13-1.7,2.07-3.13,2.5v-10.87c1.43.43,2.4,1.37,3.17,2.53,2.28,3.47,2.28,2.34-.03,5.84Z"/>
      <path class="cls-1" d="M31.16,56.63c-.03.88-.8,1.6-1.69,1.57-.92-.03-1.58-.74-1.56-1.68.02-.89.79-1.63,1.66-1.6.86.03,1.61.84,1.59,1.7Z"/>
      <path class="cls-1" d="M87.61,33.83c-1.19-.06-2.01-.7-2.68-1.55-1.03-1.31-2.34-2.71-2.34-4.23-.03-1.43,1.28-2.83,2.22-4.08.73-.91,1.55-1.64,2.86-1.67.94-.03,1.52-.85,1.46-1.8-.09-.85-.73-1.43-1.67-1.43-2.07-.03-3.62,1-4.9,2.5-.79.88-1.37,1.92-2.1,3.07-2.04-3.23-4.5-5.6-8.49-5.57-3.96,0-6.39,2.4-8.37,5.48-.7-.97-1.31-1.95-2.04-2.83-1.25-1.58-2.8-2.65-4.93-2.65-1,0-1.7.58-1.77,1.49-.03.91.55,1.7,1.52,1.73,1.37.03,2.19.85,2.89,1.8.85,1.1,1.49,2.28,2.1,3.5.18.3.24.55.06.88-.79,1.4-1.49,2.86-2.59,4.08-.61.67-1.28,1.19-2.28,1.25-1.13.06-1.77.82-1.7,1.8.09.97.85,1.52,2.01,1.46,2.04-.09,3.53-1.16,4.72-2.68.7-.88,1.31-1.86,1.98-2.8,4.26,7.18,12.42,7.49,16.89.03.7.97,1.31,1.98,2.04,2.89,1.25,1.52,2.8,2.56,4.87,2.56,1.03,0,1.7-.58,1.77-1.49.06-.91-.52-1.7-1.52-1.73ZM70.36,33.5c-1.37-.43-2.34-1.34-3.07-2.44-2.4-3.56-2.4-2.43-.03-5.99.76-1.1,1.73-2.01,3.1-2.44v10.87ZM76.81,31c-.73,1.13-1.7,2.07-3.13,2.5v-10.87c1.43.43,2.4,1.37,3.17,2.53,2.28,3.47,2.28,2.34-.03,5.84Z"/>
    </g>
  </g>
</svg>