<svg width="17" height="17" viewBox="0 0 17 17" fill="none" xmlns="http://www.w3.org/2000/svg">
<path d="M7.79232 13.4577H9.20898V10.5004L10.3423 11.6337L11.334 10.6243L8.50065 7.79102L5.66732 10.6243L6.67669 11.616L7.79232 10.5004V13.4577ZM4.25065 15.5827C3.86107 15.5827 3.52756 15.444 3.25013 15.1665C2.9727 14.8891 2.83398 14.5556 2.83398 14.166V2.83268C2.83398 2.4431 2.9727 2.10959 3.25013 1.83216C3.52756 1.55473 3.86107 1.41602 4.25065 1.41602H9.91732L14.1673 5.66602V14.166C14.1673 14.5556 14.0286 14.8891 13.7512 15.1665C13.4737 15.444 13.1402 15.5827 12.7507 15.5827H4.25065ZM9.20898 6.37435V2.83268H4.25065V14.166H12.7507V6.37435H9.20898Z" fill="#305454"/>
</svg>
