<?xml version="1.0" encoding="UTF-8"?>
<svg id="Layer_1" data-name="Layer 1" xmlns="http://www.w3.org/2000/svg" viewBox="0 0 120 120">
  <defs>
    <style>
      .cls-1 {
        opacity: .5;
      }

      .cls-2 {
        fill: #faae31;
      }
    </style>
  </defs>
  <g id="expanded" class="cls-1">
    <path class="cls-2" d="M99.44,74.39c-.77-.78-2.05-.78-2.82,0l-1.98,1.98-8.49-8.49,1.98-1.98c.78-.77.78-2.05,0-2.82-.78-.78-2.05-.78-2.83,0l-4.53,4.52c-2.22,2.23-3.27,5.39-2.81,8.5-3.12-.47-6.28.58-8.5,2.82l-4.53,4.53c-.78.78-.78,2.05,0,2.83.78.78,2.05.77,2.83-.01l1.98-1.97,8.48,8.48-1.97,1.98c-.78.78-.78,2.05,0,2.83.77.78,2.05.78,2.82,0l4.53-4.53c2.23-2.23,3.27-5.38,2.81-8.5,3.12.47,6.28-.58,8.51-2.81l4.52-4.53c.78-.78.78-2.05,0-2.83ZM81.04,89.93l-8.44-8.44c2.39-2,5.91-1.89,8.17.26,2.22,2.23,2.33,5.8.26,8.17ZM83.61,78.92c-2.22-2.23-2.33-5.81-.25-8.17l8.42,8.42c-2.39,2-5.91,1.89-8.17-.25Z"/>
    <path class="cls-2" d="M32.44,14.26c-1.72-.32-3.49-.34-5.22-.06-1.09.19-2.13-.53-2.32-1.62-.19-1.09.53-2.13,1.62-2.32,0,0,0,0,0,0,2.2-.36,4.45-.34,6.65.07,1.09.2,1.81,1.24,1.61,2.33-.2,1.09-1.24,1.81-2.33,1.61,0,0,0,0,0,0Z"/>
    <path class="cls-2" d="M109.35,28.28c-.83-.74-2.09-.67-2.83.14-.26.29-.54.58-.83.85l-14.95-14.97c.27-.28.56-.55.85-.82.82-.74.88-2.01.14-2.83s-2.01-.88-2.83-.14c-6.84,6.19-7.61,15.43-7.17,23.38-11.08-1.19-22.93-3.96-32.65-2.35.08-.64.12-1.3.13-1.94,0-5.86-2.61-11.41-7.13-15.13-.85-.71-2.11-.6-2.82.25-.71.85-.59,2.11.25,2.82.01,0,.01.01.02.01,6.06,5,7.47,13.72,3.25,20.36-.33.51-.4,1.13-.22,1.71l1.47,4.41-4.41-1.47c-.57-.2-1.2-.11-1.71.21-7.28,4.6-16.9,2.43-21.51-4.85-4.3-6.81-2.71-15.78,3.68-20.69.87-.67,1.03-1.93.36-2.8-.67-.88-1.93-1.04-2.81-.37-8.58,6.61-10.18,18.92-3.57,27.49,3.71,4.82,9.45,7.64,15.53,7.64.65-.01,1.3-.04,1.95-.12-1.61,9.72,1.16,21.57,2.34,32.64-7.95-.42-17.19.35-23.37,7.18-.74.82-.69,2.08.14,2.82.82.74,2.08.69,2.82-.14.27-.29.54-.58.83-.84l14.95,14.95c-.27.28-.56.56-.85.83-.82.74-.88,2-.14,2.82.75.82,2.01.88,2.83.14,5.89-5.32,7.28-12.93,7.28-20.02,0-1.14-.04-2.26-.1-3.36,6.62.71,13.5,1.99,19.96,2.55,2.35.18,2.72-2.9,1.57-4.05l-24.41-24.41c-.05-.04-.11-.08-.15-.11-.22-2.55-.23-5.12-.07-7.67l24.36,24.37c.78.77,2.06.77,2.83-.01.78-.77.78-2.04,0-2.82l-25.99-25.99c.98-.36,1.94-.79,2.85-1.31l7.34,2.45c1.04.35,2.18-.22,2.53-1.27.14-.4.14-.85,0-1.26l-2.44-7.32c.51-.91.94-1.87,1.3-2.86l25.99,26c.78.77,2.06.77,2.83-.01.78-.77.78-2.04,0-2.82l-24.36-24.36c2.76-.19,5.54-.14,8.29.1.03.04.04.08.08.11l24.41,24.42c.81.78,2.09.76,2.87-.04.4-.4.61-.96.58-1.53-.56-6.5-1.83-13.27-2.54-19.96,8.75.48,17.47-.65,23.37-7.17.75-.83.69-2.09-.13-2.83ZM53.68,84.12c-5.62-.72-10.11-1.49-15.75-2.06-.58-5.75-1.35-10.24-2.05-15.75l17.8,17.81ZM31.67,102.44l-14.11-14.11c1.63-.89,3.38-1.55,5.2-1.94l10.84,10.84c-.39,1.82-1.04,3.57-1.94,5.2ZM34.29,92.27l-6.55-6.55c2.17-.12,4.34-.11,6.51.03.14,2.18.16,4.34.04,6.52ZM67,35.96c5.31.7,9.71,1.44,15.07,1.97.54,5.45,1.34,10.27,1.97,15.07l-17.04-17.04ZM85.75,34.25c-.14-2.17-.15-4.34-.04-6.51l6.55,6.54c-2.17.12-4.34.11-6.51-.03ZM97.23,33.61l-10.84-10.85c.39-1.82,1.04-3.57,1.94-5.2l14.11,14.11c-1.63.9-3.38,1.56-5.2,1.95Z"/>
    <path class="cls-2" d="M55.02,52.19c-.78-.78-2.05-.78-2.83,0-.78.78-.78,2.05,0,2.83h0l13.25,13.25c.78.78,2.05.78,2.83,0,.78-.78.78-2.04,0-2.82l-13.25-13.25Z"/>
    <path class="cls-2" d="M37.8,21.4c-2.1-2.1-5-3.4-8.2-3.4-6.41,0-11.6,5.19-11.6,11.6s5.19,11.59,11.6,11.59,11.6-5.19,11.6-11.59c-.01-3.21-1.31-6.11-3.41-8.21ZM37.42,27.81l-8,8c-.78.78-2.05.78-2.83.01h0s-4.8-4.81-4.8-4.81c-.78-.77-.78-2.05,0-2.82.78-.78,2.05-.78,2.83,0l3.39,3.38,6.58-6.58c.78-.78,2.05-.78,2.83,0,.78.77.78,2.05,0,2.82Z"/>
  </g>
</svg>