<?xml version="1.0" encoding="UTF-8"?>
<svg id="Layer_1" data-name="Layer 1" xmlns="http://www.w3.org/2000/svg" viewBox="0 0 120 120">
  <defs>
    <style>
      .cls-1 {
        opacity: .5;
      }

      .cls-2 {
        fill: #faae31;
      }
    </style>
  </defs>
  <g class="cls-1">
    <path id="Rupee" class="cls-2" d="M73.42,45.41c0-.98-.79-1.77-1.77-1.77h-22.62c-.98,0-1.77.79-1.77,1.77s.79,1.77,1.77,1.77h15.14c.18.94.43,2.6.32,4.4h-15.46c-.98,0-1.77.79-1.77,1.77s.79,1.77,1.77,1.77h14.67c-.3.69-.71,1.35-1.24,1.92-2.43,2.63-7.05,3.27-13.75,1.9-.96-.2-1.89.42-2.09,1.38-.03.14-.04.27-.03.4-.01.46.15.93.5,1.29l13.44,13.82c.35.36.81.54,1.27.54s.89-.17,1.23-.5c.7-.68.72-1.8.04-2.5l-9.97-10.25c.58.04,1.15.06,1.7.06,4.53,0,7.97-1.25,10.27-3.73,1.2-1.3,1.95-2.8,2.4-4.33h4.19c.98,0,1.77-.79,1.77-1.77s-.79-1.77-1.77-1.77h-3.61c.09-1.71-.08-3.27-.27-4.4h3.87c.98,0,1.77-.79,1.77-1.77h0Z"/>
    <path id="Circle" class="cls-2" d="M60,87.8c-15.33,0-27.8-12.47-27.8-27.8s12.47-27.8,27.8-27.8,27.8,12.47,27.8,27.8-12.47,27.8-27.8,27.8h0ZM60,35.74c-13.38,0-24.26,10.88-24.26,24.26s10.88,24.26,24.26,24.26c13.38,0,24.26-10.88,24.26-24.26s-10.88-24.26-24.26-24.26h0Z"/>
    <path id="Gear" class="cls-2" d="M68.5,105h-17c-.88,0-1.62-.64-1.75-1.51l-1.1-7.47c-2.1-.66-4.14-1.51-6.09-2.53l-6.06,4.51c-.71.52-1.69.45-2.31-.17l-12.02-12.02c-.62-.62-.69-1.6-.17-2.31l4.51-6.06c-1.02-1.95-1.87-4-2.53-6.09l-7.47-1.1c-.87-.13-1.51-.87-1.51-1.75v-17c0-.88.64-1.62,1.51-1.75l7.47-1.1c.66-2.1,1.51-4.14,2.53-6.09l-4.51-6.06c-.52-.71-.45-1.69.17-2.31l12.02-12.02c.62-.62,1.6-.69,2.31-.17l6.06,4.51c1.95-1.02,4-1.87,6.09-2.53l1.1-7.47c.13-.87.87-1.51,1.75-1.51h17c.88,0,1.62.64,1.75,1.51l1.1,7.47c2.1.66,4.14,1.51,6.09,2.53l6.06-4.5c.7-.52,1.69-.45,2.31.17l12.02,12.02c.62.62.69,1.6.17,2.31l-4.51,6.06c1.02,1.95,1.87,4,2.53,6.09l7.47,1.1c.87.13,1.51.87,1.51,1.75v17c0,.88-.64,1.62-1.51,1.75l-7.47,1.1c-.66,2.1-1.51,4.14-2.53,6.09l4.51,6.06c.52.7.45,1.69-.17,2.31l-12.02,12.02c-.62.62-1.6.69-2.31.17l-6.06-4.51c-1.95,1.02-4,1.87-6.09,2.53l-1.1,7.47c-.13.87-.87,1.51-1.75,1.51h0ZM53.03,101.46h13.94l1.04-7.07c.1-.69.6-1.26,1.27-1.45,2.58-.73,5.09-1.77,7.44-3.09.61-.34,1.36-.29,1.92.12l5.74,4.27,9.86-9.86-4.27-5.74c-.42-.56-.47-1.31-.12-1.92,1.32-2.35,2.36-4.86,3.09-7.44.19-.67.76-1.17,1.45-1.27l7.07-1.04v-13.94l-7.07-1.04c-.69-.1-1.26-.6-1.45-1.27-.73-2.58-1.77-5.09-3.09-7.44-.34-.61-.29-1.36.12-1.92l4.27-5.74-9.86-9.86-5.74,4.27c-.56.42-1.31.47-1.92.12-2.35-1.32-4.86-2.36-7.44-3.09-.67-.19-1.17-.76-1.27-1.45l-1.04-7.07h-13.94l-1.04,7.07c-.1.69-.6,1.26-1.27,1.45-2.58.73-5.09,1.77-7.44,3.09-.61.34-1.36.29-1.92-.12l-5.74-4.27-9.86,9.86,4.27,5.74c.42.56.47,1.31.12,1.92-1.32,2.35-2.36,4.86-3.09,7.44-.19.67-.76,1.17-1.45,1.27l-7.07,1.04v13.94l7.07,1.04c.69.1,1.26.6,1.45,1.27.73,2.58,1.77,5.09,3.09,7.44.34.61.29,1.36-.12,1.92l-4.27,5.74,9.86,9.86,5.74-4.27c.56-.42,1.31-.47,1.92-.12,2.35,1.32,4.86,2.36,7.44,3.09.67.19,1.17.76,1.27,1.45l1.04,7.07Z"/>
  </g>
</svg>