<?xml version="1.0" encoding="UTF-8"?>
<svg id="Layer_1" data-name="Layer 1" xmlns="http://www.w3.org/2000/svg" viewBox="0 0 120 120">
  <defs>
    <style>
      .cls-1 {
        fill: #fdaf33;
        fill-rule: evenodd;
      }
    </style>
  </defs>
  <path class="cls-1" d="M45,24.7c0,2.53,1.35,4.55,3.28,5v50.76c0,4.64-.71,9.93,1.53,13.62,1.87,3.08,5.27,5.9,9.4,5.9,3.8,0,5.83-.61,8.7-3.01,1.75-1.46,3.15-4.2,3.6-6.55.43-2.31.2-16.57.2-20.11V29.7c2.98-.69,4.67-5.42,1.84-8.25-.71-.71-1.87-1.44-3.25-1.44h-20.62c-2.41,0-4.69,2.28-4.69,4.69M48.44,25.17c0-.96.41-1.72,1.41-1.72h20.3c1.89,0,1.89,3.12,0,3.12h-20.3c-.77,0-1.41-.63-1.41-1.4ZM51.72,30.01h16.56v19.99h-16.56v-19.99ZM51.72,53.44h16.56v34.83c0,4.55-3.67,8.28-7.81,8.28-3.8,0-6.7-1.69-8.06-4.9-.43-1.01-.69-2.01-.69-3.37v-14.84h4.53c2.87,0,2.54-3.44.62-3.44h-5.15v-6.56h4.53c2.87,0,2.54-3.44.62-3.44h-5.15v-6.56Z"/>
</svg>